<?xml version="1.0" encoding="utf-8"?>
<svg xmlns="http://www.w3.org/2000/svg" height="512pt" version="1.1" viewBox="0 0 512 512" width="512pt">
<path d="M 0.00 0.00 L 512.00 0.00 L 512.00 512.00 L 0.00 512.00 L 0.00 0.00 Z" fill="transparent" opacity="1.00" stroke="transparent" stroke-width="0.25"/>
<path d="M 288.68 135.64 C 288.95 133.07 288.79 129.43 292.02 128.75 C 298.11 127.50 302.86 132.39 307.30 135.71 C 311.82 139.49 318.56 139.44 322.32 144.27 C 322.48 143.60 322.80 142.26 322.96 141.59 C 325.10 143.15 322.53 146.04 324.43 147.60 C 328.31 151.62 324.69 157.15 322.98 161.33 C 322.05 160.64 321.07 160.05 320.04 159.56 C 317.91 160.04 316.35 161.69 314.62 162.90 C 314.84 159.33 314.97 155.75 315.06 152.17 C 313.83 151.92 312.62 151.63 311.42 151.30 C 311.44 149.74 311.68 148.19 311.86 146.65 C 305.91 146.38 300.29 149.58 294.29 148.10 C 293.94 148.93 293.25 150.59 292.90 151.42 C 294.93 151.68 296.89 152.32 298.59 153.49 C 296.68 153.62 294.73 153.49 292.89 154.06 C 293.73 154.80 294.72 155.34 295.84 155.69 C 295.81 157.13 295.84 158.67 294.53 159.61 C 294.12 158.09 293.74 156.61 293.27 155.12 L 292.35 156.59 L 292.18 155.60 C 291.53 153.54 291.45 151.39 291.55 149.24 C 289.63 149.14 287.34 149.55 285.89 147.93 C 287.23 147.53 288.61 147.16 289.96 146.78 C 288.20 146.06 286.08 145.79 284.83 144.21 C 283.05 142.39 283.63 139.66 283.43 137.37 C 285.46 138.43 287.57 139.35 289.82 139.83 C 286.28 138.82 283.70 135.82 283.45 132.10 C 285.18 133.29 286.91 134.49 288.68 135.64 Z" fill="#7c4a2b" opacity="1.00" stroke="#7c4a2b" stroke-width="0.25"/>
<path d="M 181.07 146.57 C 183.31 145.52 185.49 144.37 187.68 143.25 C 187.66 145.10 187.59 146.95 187.48 148.80 C 188.35 148.35 189.23 147.89 190.12 147.44 C 190.38 151.26 190.24 155.48 187.44 158.44 C 184.10 158.46 180.71 157.11 177.44 158.36 C 172.49 159.90 167.34 160.57 162.32 161.80 C 162.46 162.64 162.74 164.32 162.87 165.16 C 162.30 164.07 161.70 163.00 161.08 161.94 C 161.14 164.31 161.52 166.65 162.36 168.88 C 162.24 169.18 162.00 169.78 161.89 170.08 C 160.64 171.92 158.55 172.62 156.47 173.02 C 156.25 172.75 155.81 172.19 155.59 171.92 C 153.53 168.34 151.62 164.29 152.30 160.05 C 152.80 158.82 154.24 158.47 155.18 157.70 C 155.47 156.33 155.46 154.93 155.57 153.55 C 157.90 151.79 161.90 153.17 163.15 150.13 C 164.64 146.84 168.89 148.43 171.37 146.57 C 174.22 144.47 178.22 144.44 181.07 146.57 Z" fill="#2d3e69" opacity="1.00" stroke="#2d3e69" stroke-width="0.25"/>
<path d="M 294.29 148.10 C 300.29 149.58 305.91 146.38 311.86 146.65 C 311.68 148.19 311.44 149.74 311.42 151.30 C 312.62 151.63 313.83 151.92 315.06 152.17 C 314.97 155.75 314.84 159.33 314.62 162.90 C 316.35 161.69 317.91 160.04 320.04 159.56 C 321.07 160.05 322.05 160.64 322.98 161.33 C 323.49 163.55 322.35 167.28 320.02 168.15 C 318.60 168.49 317.18 168.79 315.76 169.12 C 312.55 170.38 311.69 174.24 308.95 176.11 C 306.15 178.00 302.88 179.00 299.74 180.17 C 300.03 182.46 298.25 186.65 301.92 186.53 C 300.98 187.37 300.10 188.28 299.26 189.22 C 299.12 188.61 298.85 187.38 298.72 186.77 C 298.30 184.78 298.34 182.75 298.26 180.74 C 297.13 180.56 295.99 180.38 294.86 180.21 C 289.64 173.21 288.37 163.53 292.18 155.60 L 292.35 156.59 L 293.27 155.12 C 293.74 156.61 294.12 158.09 294.53 159.61 C 295.84 158.67 295.81 157.13 295.84 155.69 C 294.72 155.34 293.73 154.80 292.89 154.06 C 294.73 153.49 296.68 153.62 298.59 153.49 C 296.89 152.32 294.93 151.68 292.90 151.42 C 293.25 150.59 293.94 148.93 294.29 148.10 Z" fill="#fcbf93" opacity="1.00" stroke="#fcbf93" stroke-width="0.25"/>
<path d="M 302.92 154.59 C 304.59 151.09 310.01 152.86 311.81 155.60 C 308.90 154.85 305.91 154.58 302.92 154.59 Z" fill="#7c4a2b" opacity="1.00" stroke="#7c4a2b" stroke-width="0.25"/>
<path d="M 394.90 155.55 C 401.59 154.95 410.63 154.86 413.63 162.29 C 418.38 162.46 422.00 166.50 422.41 171.10 C 423.69 178.78 418.49 185.49 418.46 193.04 C 419.15 194.09 420.17 195.01 420.44 196.29 C 420.54 196.69 420.72 197.49 420.82 197.89 C 424.88 202.50 430.15 205.96 435.87 208.15 C 435.75 210.71 435.35 213.25 434.52 215.68 C 432.18 218.20 429.68 220.73 426.24 221.63 C 428.10 219.36 430.14 216.98 429.58 213.80 C 425.29 207.40 416.55 210.60 410.62 207.22 C 407.44 205.19 407.30 201.21 407.20 197.83 C 407.19 196.23 407.23 194.62 407.26 193.02 C 408.66 191.36 409.93 189.58 411.26 187.86 C 411.28 188.90 411.31 190.98 411.33 192.02 C 411.67 191.74 412.35 191.17 412.69 190.89 C 412.68 190.24 412.68 188.93 412.67 188.27 C 414.78 186.45 417.06 184.40 417.01 181.35 C 416.66 180.39 416.30 179.43 415.93 178.48 C 414.21 179.32 412.51 180.21 410.85 181.16 C 410.59 179.82 410.37 178.48 410.04 177.16 C 405.83 172.96 401.28 168.37 400.78 162.09 C 395.67 164.86 389.60 166.69 386.18 171.73 C 388.26 171.62 390.61 170.75 392.47 172.16 C 390.44 172.36 388.41 172.40 386.38 172.42 C 386.37 173.28 386.35 174.98 386.33 175.84 C 387.88 175.95 389.42 176.07 390.97 176.21 C 390.30 177.66 389.62 179.11 388.94 180.56 C 388.23 179.24 387.52 177.91 386.83 176.59 C 386.24 177.98 385.66 179.37 385.12 180.78 C 383.99 179.13 382.78 177.54 381.54 175.98 C 381.03 173.57 380.70 171.13 380.54 168.69 C 381.16 169.32 381.78 169.96 382.42 170.60 C 383.42 166.73 385.67 163.22 388.89 160.80 C 390.93 159.18 393.62 158.16 394.82 155.67 L 394.90 155.55 Z" fill="#84512b" opacity="1.00" stroke="#84512b" stroke-width="0.25"/>
<path d="M 380.54 168.69 C 382.25 162.05 387.93 156.53 394.82 155.67 C 393.62 158.16 390.93 159.18 388.89 160.80 C 385.67 163.22 383.42 166.73 382.42 170.60 C 381.78 169.96 381.16 169.32 380.54 168.69 Z" fill="#977354" opacity="1.00" stroke="#977354" stroke-width="0.25"/>
<path d="M 177.44 158.36 C 180.71 157.11 184.10 158.46 187.44 158.44 C 188.83 164.22 187.31 170.25 189.00 175.98 C 190.43 182.23 189.57 190.06 183.93 194.03 C 180.74 193.33 177.49 194.04 174.29 193.68 C 171.74 192.92 169.51 191.41 167.18 190.16 C 167.14 190.58 167.07 191.41 167.03 191.83 C 166.14 191.23 165.25 190.64 164.36 190.06 C 164.15 189.52 163.72 188.45 163.50 187.91 C 162.96 186.63 162.36 185.37 162.07 184.00 C 161.38 181.03 161.40 177.79 159.88 175.08 C 158.83 174.25 157.61 173.70 156.47 173.02 C 158.55 172.62 160.64 171.92 161.89 170.08 C 161.30 173.62 161.34 177.54 163.31 180.66 C 164.88 182.94 167.78 183.58 170.16 184.67 C 170.34 183.32 170.53 181.97 170.72 180.62 C 175.53 178.07 181.11 178.39 186.27 179.50 C 186.66 180.73 187.05 181.96 187.44 183.18 C 190.23 177.92 187.66 172.17 187.35 166.67 C 185.04 166.60 182.74 166.55 180.44 166.50 C 180.39 165.96 180.29 164.86 180.25 164.32 C 182.48 164.63 184.72 164.97 186.95 165.31 C 186.11 163.47 185.52 161.45 184.22 159.87 C 176.83 158.42 169.81 163.52 162.32 161.80 C 167.34 160.57 172.49 159.90 177.44 158.36 Z" fill="#3c3942" opacity="1.00" stroke="#3c3942" stroke-width="0.25"/>
<path d="M 304.38 157.48 C 305.77 156.88 307.19 157.48 308.58 157.73 C 308.56 158.20 308.50 159.15 308.47 159.63 L 308.46 159.71 C 308.14 159.19 307.49 158.14 307.17 157.62 C 306.74 158.22 305.87 159.43 305.44 160.03 C 304.76 159.33 304.49 158.42 304.38 157.48 Z" fill="#352226" opacity="1.00" stroke="#352226" stroke-width="0.25"/>
<path d="M 162.32 161.80 C 169.81 163.52 176.83 158.42 184.22 159.87 C 185.52 161.45 186.11 163.47 186.95 165.31 C 184.72 164.97 182.48 164.63 180.25 164.32 C 180.29 164.86 180.39 165.96 180.44 166.50 C 182.74 166.55 185.04 166.60 187.35 166.67 C 187.66 172.17 190.23 177.92 187.44 183.18 C 187.05 181.96 186.66 180.73 186.27 179.50 C 181.11 178.39 175.53 178.07 170.72 180.62 C 170.53 181.97 170.34 183.32 170.16 184.67 C 167.78 183.58 164.88 182.94 163.31 180.66 C 161.34 177.54 161.30 173.62 161.89 170.08 C 162.00 169.78 162.24 169.18 162.36 168.88 C 162.55 168.37 162.95 167.36 163.14 166.86 C 163.07 166.44 162.94 165.59 162.87 165.16 C 162.74 164.32 162.46 162.64 162.32 161.80 Z" fill="#fbbd8f" opacity="1.00" stroke="#fbbd8f" stroke-width="0.25"/>
<path d="M 294.76 164.01 C 294.48 161.81 296.49 160.81 298.08 159.91 C 297.44 161.32 296.76 162.70 296.07 164.08 C 297.54 164.61 300.18 164.06 300.77 165.74 C 298.69 166.61 295.57 166.56 294.76 164.01 Z" fill="#de9b6e" opacity="1.00" stroke="#de9b6e" stroke-width="0.25"/>
<path d="M 304.52 162.34 C 305.86 161.51 307.22 160.70 308.46 159.71 L 308.47 159.63 C 310.79 161.26 312.57 163.94 310.87 166.70 C 310.04 166.61 309.22 166.52 308.41 166.44 C 308.05 166.78 307.33 167.45 306.97 167.78 C 306.11 167.00 305.25 166.21 304.39 165.42 C 304.43 164.39 304.47 163.37 304.52 162.34 Z" fill="#fda47a" opacity="1.00" stroke="#fda47a" stroke-width="0.25"/>
<path d="M 162.36 168.88 C 161.52 166.65 161.14 164.31 161.08 161.94 C 161.70 163.00 162.30 164.07 162.87 165.16 C 162.94 165.59 163.07 166.44 163.14 166.86 C 162.95 167.36 162.55 168.37 162.36 168.88 Z" fill="#333143" opacity="1.00" stroke="#333143" stroke-width="0.25"/>
<path d="M 386.18 171.73 C 389.60 166.69 395.67 164.86 400.78 162.09 C 401.28 168.37 405.83 172.96 410.04 177.16 C 409.80 179.94 410.01 182.77 412.37 184.61 C 413.90 183.50 415.44 182.41 417.01 181.35 C 417.06 184.40 414.78 186.45 412.67 188.27 C 412.68 188.93 412.68 190.24 412.69 190.89 C 412.35 191.17 411.67 191.74 411.33 192.02 C 411.31 190.98 411.28 188.90 411.26 187.86 C 409.93 189.58 408.66 191.36 407.26 193.02 C 403.71 195.04 399.95 196.69 396.19 198.27 C 392.87 198.97 389.78 197.68 387.95 194.86 C 387.10 193.58 386.30 192.26 385.54 190.94 C 383.90 187.85 383.85 184.01 385.12 180.78 C 385.66 179.37 386.24 177.98 386.83 176.59 C 387.52 177.91 388.23 179.24 388.94 180.56 C 389.62 179.11 390.30 177.66 390.97 176.21 C 389.42 176.07 387.88 175.95 386.33 175.84 C 386.35 174.98 386.37 173.28 386.38 172.42 C 388.41 172.40 390.44 172.36 392.47 172.16 C 390.61 170.75 388.26 171.62 386.18 171.73 Z" fill="#fec093" opacity="1.00" stroke="#fec093" stroke-width="0.25"/>
<path d="M 317.47 163.27 C 319.56 162.10 319.35 166.18 317.76 166.55 C 316.20 166.41 316.57 164.00 317.47 163.27 Z" fill="#dd9d6e" opacity="1.00" stroke="#dd9d6e" stroke-width="0.25"/>
<path d="M 166.08 168.39 C 168.10 165.56 171.69 164.78 174.97 165.45 C 173.12 168.38 168.93 167.09 166.08 168.39 Z" fill="#352226" opacity="1.00" stroke="#352226" stroke-width="0.25"/>
<path d="M 235.75 169.53 C 236.94 167.64 238.43 165.32 240.96 165.39 C 246.04 164.66 250.79 167.33 254.23 170.84 C 257.72 174.73 263.54 175.79 266.35 180.40 C 269.26 184.96 264.98 191.45 269.67 195.18 C 269.22 195.19 268.32 195.19 267.86 195.19 C 269.18 197.00 271.96 198.42 271.23 201.02 C 270.79 203.95 269.85 206.81 268.56 209.47 C 268.00 210.34 267.62 211.82 266.30 211.60 C 264.24 210.86 262.35 209.50 260.08 209.51 C 255.40 204.46 254.92 197.30 256.23 190.85 C 257.09 189.47 257.93 188.08 258.78 186.70 C 255.98 185.08 252.71 184.04 250.54 181.53 C 247.70 178.28 244.80 175.05 242.40 171.44 C 241.10 168.97 238.05 169.72 235.75 169.53 Z" fill="#fec25b" opacity="1.00" stroke="#fec25b" stroke-width="0.25"/>
<path d="M 182.25 168.27 C 183.41 168.25 184.57 168.21 185.73 168.15 C 184.18 169.29 184.94 171.26 184.76 172.88 C 181.65 172.86 184.68 169.07 182.25 168.27 Z" fill="#7c4a2b" opacity="1.00" stroke="#7c4a2b" stroke-width="0.25"/>
<path d="M 315.76 169.12 C 317.18 168.79 318.60 168.49 320.02 168.15 C 317.82 169.63 317.14 172.23 316.29 174.59 L 316.03 173.67 C 315.90 172.15 315.84 170.64 315.76 169.12 Z" fill="#352226" opacity="1.00" stroke="#352226" stroke-width="0.25"/>
<path d="M 295.20 169.17 C 298.37 169.36 302.16 168.06 304.81 170.35 C 302.08 171.47 299.17 171.97 296.22 171.96 C 295.88 171.03 295.54 170.10 295.20 169.17 Z" fill="#fffcfd" opacity="1.00" stroke="#fffcfd" stroke-width="0.25"/>
<path d="M 308.95 176.11 C 311.69 174.24 312.55 170.38 315.76 169.12 C 315.84 170.64 315.90 172.15 316.03 173.67 C 315.48 173.03 314.93 172.40 314.37 171.78 C 314.24 172.15 313.97 172.89 313.84 173.26 C 310.47 178.18 307.04 183.25 301.92 186.53 C 298.25 186.65 300.03 182.46 299.74 180.17 C 302.88 179.00 306.15 178.00 308.95 176.11 Z" fill="#f2956a" opacity="1.00" stroke="#f2956a" stroke-width="0.25"/>
<path d="M 233.43 171.83 C 233.98 170.86 234.76 170.09 235.75 169.53 C 238.05 169.72 241.10 168.97 242.40 171.44 C 240.00 172.23 237.49 173.08 235.88 175.16 C 235.39 175.31 234.43 175.61 233.95 175.76 C 233.76 174.45 233.58 173.14 233.43 171.83 Z" fill="#dca959" opacity="1.00" stroke="#dca959" stroke-width="0.25"/>
<path d="M 304.81 170.35 L 305.31 170.18 C 303.06 172.93 299.36 173.09 296.10 172.85 L 296.22 171.96 C 299.17 171.97 302.08 171.47 304.81 170.35 Z" fill="#855c40" opacity="1.00" stroke="#855c40" stroke-width="0.25"/>
<path d="M 171.76 170.82 C 173.20 169.76 174.16 172.37 173.17 173.27 C 171.77 174.39 170.65 171.70 171.76 170.82 Z" fill="#352226" opacity="1.00" stroke="#352226" stroke-width="0.25"/>
<path d="M 155.59 171.92 C 155.81 172.19 156.25 172.75 156.47 173.02 C 157.61 173.70 158.83 174.25 159.88 175.08 C 161.40 177.79 161.38 181.03 162.07 184.00 C 156.26 183.87 152.57 176.84 155.59 171.92 Z" fill="#ddab8a" opacity="1.00" stroke="#ddab8a" stroke-width="0.25"/>
<path d="M 226.70 184.60 C 230.38 181.16 230.83 175.92 233.43 171.83 C 233.58 173.14 233.76 174.45 233.95 175.76 C 234.43 175.61 235.39 175.31 235.88 175.16 C 232.91 181.83 231.70 189.95 235.59 196.53 C 234.61 201.20 233.42 205.83 232.92 210.58 C 232.62 210.59 232.03 210.60 231.73 210.61 C 231.32 210.63 230.50 210.67 230.10 210.69 C 229.24 211.25 228.42 211.85 227.60 212.44 C 227.34 211.95 226.82 210.95 226.56 210.45 C 226.38 210.34 226.00 210.11 225.81 209.99 L 224.52 209.28 C 224.33 207.00 223.99 204.65 224.62 202.41 C 225.39 200.81 226.74 199.55 227.47 197.92 C 228.03 195.84 227.24 193.81 226.62 191.85 C 225.82 189.49 226.45 187.00 226.70 184.60 Z" fill="#fcc25c" opacity="1.00" stroke="#fcc25c" stroke-width="0.25"/>
<path d="M 235.88 175.16 C 237.49 173.08 240.00 172.23 242.40 171.44 C 244.80 175.05 247.70 178.28 250.54 181.53 C 252.71 184.04 255.98 185.08 258.78 186.70 C 257.93 188.08 257.09 189.47 256.23 190.85 C 255.37 191.47 254.51 192.08 253.64 192.68 C 253.11 197.19 252.04 201.98 253.72 206.38 C 254.76 208.91 257.59 209.62 260.08 209.51 C 262.35 209.50 264.24 210.86 266.30 211.60 C 267.62 211.82 268.00 210.34 268.56 209.47 C 269.85 206.81 270.79 203.95 271.23 201.02 C 271.96 198.42 269.18 197.00 267.86 195.19 C 268.32 195.19 269.22 195.19 269.67 195.18 C 271.21 196.31 272.37 197.84 273.66 199.23 C 270.48 206.27 268.79 213.87 266.88 221.32 C 266.51 223.21 265.68 225.10 265.88 227.06 C 269.03 229.63 273.04 230.79 276.76 232.29 C 276.67 239.20 276.66 246.12 276.66 253.04 C 276.68 259.55 274.96 265.88 273.58 272.19 L 273.04 272.82 C 271.92 271.16 270.78 269.51 269.66 267.85 C 269.88 265.88 269.81 263.83 268.84 262.05 C 266.56 257.34 264.72 252.26 264.68 246.98 C 264.99 243.30 265.74 239.66 265.79 235.96 C 263.46 243.81 263.42 252.33 266.54 259.97 C 265.30 260.90 264.05 261.84 262.82 262.78 C 261.19 262.35 259.56 261.92 257.96 261.43 C 255.67 260.64 253.47 259.64 251.26 258.67 C 246.06 255.83 240.87 252.95 235.99 249.60 C 235.67 249.45 235.04 249.14 234.73 248.98 C 229.45 247.07 225.51 242.18 219.56 242.28 C 220.97 241.74 222.38 241.18 223.80 240.63 C 223.36 239.92 222.92 239.22 222.48 238.52 C 222.81 237.67 223.15 236.82 223.50 235.99 L 223.74 235.44 C 227.58 235.17 229.84 238.44 232.42 240.67 C 235.88 243.92 240.73 244.73 245.12 246.04 C 249.11 247.20 253.18 248.01 257.28 248.63 C 259.09 243.64 259.88 238.34 259.75 233.04 C 256.67 230.01 256.33 225.58 256.35 221.50 C 257.60 217.56 259.46 213.86 261.43 210.25 C 257.62 210.80 256.76 215.19 254.97 217.96 C 253.32 221.81 249.82 224.38 245.94 225.71 C 242.64 226.76 238.95 227.98 235.56 226.59 C 233.16 225.61 230.39 223.87 230.29 220.98 C 230.08 217.18 232.22 213.83 233.91 210.58 C 236.12 210.16 238.35 209.49 240.17 208.12 C 241.25 205.74 241.34 202.87 240.63 200.37 C 239.09 198.91 237.26 197.81 235.59 196.53 C 231.70 189.95 232.91 181.83 235.88 175.16 Z" fill="#ffc292" opacity="1.00" stroke="#ffc292" stroke-width="0.25"/>
<path d="M 314.37 171.78 C 314.93 172.40 315.48 173.03 316.03 173.67 L 316.29 174.59 C 317.28 178.70 316.77 183.03 317.75 187.15 C 318.04 189.04 320.04 189.64 321.43 190.56 C 319.73 193.37 318.12 196.38 315.44 198.39 C 310.32 202.27 302.85 202.96 297.20 199.85 C 294.59 198.55 294.14 195.41 293.26 192.93 C 294.34 191.92 295.42 190.90 296.46 189.84 C 297.35 188.92 297.98 187.80 298.72 186.77 C 298.85 187.38 299.12 188.61 299.26 189.22 C 297.83 191.40 293.91 193.77 296.22 196.64 C 298.75 200.52 303.98 200.22 308.05 200.06 C 312.91 199.82 316.11 195.62 318.77 192.04 C 314.85 186.52 315.89 179.44 313.84 173.26 C 313.97 172.89 314.24 172.15 314.37 171.78 Z" fill="#edbea8" opacity="1.00" stroke="#edbea8" stroke-width="0.25"/>
<path d="M 398.90 173.09 C 401.32 170.89 404.35 173.88 405.85 175.84 C 403.57 174.81 401.25 173.90 398.90 173.09 Z" fill="#86512a" opacity="1.00" stroke="#86512a" stroke-width="0.25"/>
<path d="M 301.92 186.53 C 307.04 183.25 310.47 178.18 313.84 173.26 C 315.89 179.44 314.85 186.52 318.77 192.04 C 316.11 195.62 312.91 199.82 308.05 200.06 C 303.98 200.22 298.75 200.52 296.22 196.64 C 293.91 193.77 297.83 191.40 299.26 189.22 C 300.10 188.28 300.98 187.37 301.92 186.53 Z" fill="#ffc290" opacity="1.00" stroke="#ffc290" stroke-width="0.25"/>
<path d="M 398.64 177.48 C 401.34 176.71 403.15 178.41 404.09 180.80 C 403.15 179.98 402.22 179.15 401.30 178.32 C 401.07 180.17 399.84 180.90 398.18 180.95 C 398.32 179.79 398.47 178.63 398.64 177.48 Z" fill="#352226" opacity="1.00" stroke="#352226" stroke-width="0.25"/>
<path d="M 410.04 177.16 C 410.37 178.48 410.59 179.82 410.85 181.16 C 412.51 180.21 414.21 179.32 415.93 178.48 C 416.30 179.43 416.66 180.39 417.01 181.35 C 415.44 182.41 413.90 183.50 412.37 184.61 C 410.01 182.77 409.80 179.94 410.04 177.16 Z" fill="#d79a73" opacity="1.00" stroke="#d79a73" stroke-width="0.25"/>
<path d="M 390.78 185.54 C 387.46 183.34 390.98 180.45 393.06 179.00 C 392.47 180.52 391.84 182.03 391.20 183.54 C 392.11 183.90 393.03 184.26 393.95 184.62 C 393.16 184.85 391.57 185.31 390.78 185.54 Z" fill="#eaa57a" opacity="1.00" stroke="#eaa57a" stroke-width="0.25"/>
<path d="M 174.17 182.90 C 177.63 182.71 181.10 182.53 184.47 181.69 C 184.55 183.29 184.70 184.93 184.20 186.49 C 184.18 186.07 184.14 185.24 184.12 184.82 L 184.04 183.01 C 181.38 184.64 178.36 185.17 175.34 184.38 L 174.17 182.90 Z" fill="#fffafd" opacity="1.00" stroke="#fffafd" stroke-width="0.25"/>
<path d="M 236.01 181.19 C 237.64 180.72 238.21 181.29 237.73 182.90 C 236.09 183.37 235.51 182.80 236.01 181.19 Z" fill="#b97e50" opacity="1.00" stroke="#b97e50" stroke-width="0.25"/>
<path d="M 244.28 181.31 C 245.69 180.14 247.05 182.63 245.57 183.44 C 244.18 184.56 242.87 182.12 244.28 181.31 Z" fill="#bc8059" opacity="1.00" stroke="#bc8059" stroke-width="0.25"/>
<path d="M 401.05 183.60 C 402.97 182.90 404.88 182.18 406.80 181.44 C 407.60 183.55 409.09 187.06 406.02 188.05 C 403.22 189.66 400.29 186.44 401.05 183.60 Z" fill="#fea681" opacity="1.00" stroke="#fea681" stroke-width="0.25"/>
<path d="M 171.65 184.07 C 172.56 182.92 173.40 182.53 174.17 182.90 L 175.34 184.38 L 173.44 184.19 C 176.68 186.19 180.62 186.14 184.12 184.82 C 184.14 185.24 184.18 186.07 184.20 186.49 C 183.16 189.01 179.12 187.99 176.84 188.63 C 174.88 187.38 172.98 186.01 171.65 184.07 Z" fill="#e2be9f" opacity="1.00" stroke="#e2be9f" stroke-width="0.25"/>
<path d="M 173.44 184.19 L 175.34 184.38 C 178.36 185.17 181.38 184.64 184.04 183.01 L 184.12 184.82 C 180.62 186.14 176.68 186.19 173.44 184.19 Z" fill="#855c40" opacity="1.00" stroke="#855c40" stroke-width="0.25"/>
<path d="M 388.23 186.47 C 388.46 186.46 388.90 186.45 389.12 186.44 L 389.41 187.32 C 389.78 188.49 390.16 189.65 390.54 190.81 C 393.64 191.07 396.82 190.67 399.25 188.55 C 396.92 188.09 394.59 187.69 392.23 187.50 C 392.23 187.27 392.24 186.81 392.24 186.58 C 394.72 187.24 397.27 187.61 399.84 187.76 C 398.73 191.44 394.31 192.44 390.96 191.65 C 389.21 190.55 389.04 188.21 388.23 186.47 Z" fill="#855c40" opacity="1.00" stroke="#855c40" stroke-width="0.25"/>
<path d="M 389.41 187.32 C 390.11 187.37 391.52 187.46 392.23 187.50 C 394.59 187.69 396.92 188.09 399.25 188.55 C 396.82 190.67 393.64 191.07 390.54 190.81 C 390.16 189.65 389.78 188.49 389.41 187.32 Z" fill="#fffefd" opacity="1.00" stroke="#fffefd" stroke-width="0.25"/>
<path d="M 163.50 187.91 C 163.72 188.45 164.15 189.52 164.36 190.06 C 164.49 193.38 164.35 196.71 164.31 200.03 C 164.61 198.11 164.90 196.18 165.18 194.26 C 170.51 199.52 178.01 201.54 185.27 202.12 C 185.34 202.58 185.49 203.50 185.56 203.96 C 182.20 208.25 178.56 213.16 173.17 214.86 C 167.62 212.03 162.74 207.17 161.48 200.88 C 161.96 200.41 162.94 199.48 163.42 199.02 C 163.59 195.32 163.66 191.61 163.50 187.91 Z" fill="#ffc192" opacity="1.00" stroke="#ffc192" stroke-width="0.25"/>
<path d="M 164.36 190.06 C 165.25 190.64 166.14 191.23 167.03 191.83 C 168.28 192.70 169.55 193.55 170.89 194.28 C 174.64 196.56 179.24 195.30 183.36 195.30 C 183.73 197.06 184.08 198.94 185.48 200.21 C 185.51 201.45 185.54 202.70 185.56 203.96 C 185.49 203.50 185.34 202.58 185.27 202.12 C 178.01 201.54 170.51 199.52 165.18 194.26 C 164.90 196.18 164.61 198.11 164.31 200.03 C 164.35 196.71 164.49 193.38 164.36 190.06 Z" fill="#ef986e" opacity="1.00" stroke="#ef986e" stroke-width="0.25"/>
<path d="M 167.18 190.16 C 169.51 191.41 171.74 192.92 174.29 193.68 C 177.49 194.04 180.74 193.33 183.93 194.03 C 179.99 196.24 174.98 195.94 170.89 194.28 C 169.55 193.55 168.28 192.70 167.03 191.83 C 167.07 191.41 167.14 190.58 167.18 190.16 Z" fill="#4f312c" opacity="1.00" stroke="#4f312c" stroke-width="0.25"/>
<path d="M 290.87 191.58 C 292.67 190.82 294.54 190.22 296.46 189.84 C 295.42 190.90 294.34 191.92 293.26 192.93 C 294.14 195.41 294.59 198.55 297.20 199.85 C 302.85 202.96 310.32 202.27 315.44 198.39 C 318.12 196.38 319.73 193.37 321.43 190.56 C 322.37 191.23 323.31 191.91 324.25 192.60 C 321.02 197.20 317.11 201.96 311.35 203.25 C 305.66 204.29 299.04 204.66 294.25 200.84 C 291.40 198.68 291.55 194.75 290.87 191.58 Z" fill="#7f4d67" opacity="1.00" stroke="#7f4d67" stroke-width="0.25"/>
<path d="M 236.69 191.25 C 238.81 191.18 240.95 191.18 243.08 191.24 C 242.60 194.00 237.50 193.85 236.69 191.25 Z" fill="#dd9c70" opacity="1.00" stroke="#dd9c70" stroke-width="0.25"/>
<path d="M 253.64 192.68 C 254.51 192.08 255.37 191.47 256.23 190.85 C 254.92 197.30 255.40 204.46 260.08 209.51 C 257.59 209.62 254.76 208.91 253.72 206.38 C 252.04 201.98 253.11 197.19 253.64 192.68 Z" fill="#e09e3e" opacity="1.00" stroke="#e09e3e" stroke-width="0.25"/>
<path d="M 273.66 199.23 C 277.76 194.02 285.15 194.03 290.87 191.58 C 291.55 194.75 291.40 198.68 294.25 200.84 C 299.04 204.66 305.66 204.29 311.35 203.25 C 317.11 201.96 321.02 197.20 324.25 192.60 C 328.29 194.97 332.42 197.19 336.45 199.56 C 339.67 201.26 341.13 204.82 342.21 208.09 C 344.36 214.90 346.76 221.62 349.29 228.30 C 343.13 229.97 336.57 230.41 330.98 233.75 C 328.94 225.17 326.49 216.63 326.40 207.74 C 325.66 213.49 326.11 219.31 325.49 225.07 C 324.77 231.44 326.34 237.86 325.07 244.18 C 320.59 243.64 315.98 243.08 311.86 241.11 C 307.68 239.02 308.44 232.87 304.14 230.88 C 301.75 229.57 300.12 227.41 298.47 225.32 C 295.80 226.54 298.65 230.15 299.80 231.88 C 297.54 231.85 295.29 231.86 293.03 231.90 C 292.76 236.09 291.55 240.89 294.11 244.62 C 297.40 246.79 301.03 248.71 305.00 249.17 C 311.60 249.94 317.30 253.63 323.28 256.22 C 323.49 260.05 323.86 263.98 322.63 267.69 C 321.82 271.16 319.82 274.95 321.61 278.43 C 323.31 280.44 326.05 281.24 327.73 283.25 C 329.00 286.29 327.89 289.58 326.83 292.49 C 326.73 292.74 326.54 293.23 326.45 293.47 C 325.85 293.44 324.65 293.39 324.05 293.36 L 322.75 293.33 C 317.14 293.31 311.60 294.48 305.99 294.41 C 294.15 294.22 282.48 291.84 271.09 288.80 C 270.21 283.41 272.19 278.10 273.04 272.82 L 273.58 272.19 C 276.73 269.39 276.60 264.89 277.33 261.08 C 279.45 247.14 276.51 232.97 278.88 219.07 C 279.33 213.95 281.19 209.09 281.73 203.99 C 280.33 206.58 279.28 209.33 278.48 212.16 C 277.89 210.00 277.27 207.86 276.51 205.77 C 275.59 211.59 278.49 217.21 277.36 223.03 C 276.91 224.75 277.48 227.11 276.03 228.37 C 273.53 228.02 271.11 227.26 268.66 226.70 C 268.08 224.90 267.50 223.10 266.88 221.32 C 268.79 213.87 270.48 206.27 273.66 199.23 Z" fill="#8d5886" opacity="1.00" stroke="#8d5886" stroke-width="0.25"/>
<path d="M 385.54 190.94 C 386.30 192.26 387.10 193.58 387.95 194.86 C 387.59 194.93 386.87 195.08 386.51 195.15 C 386.38 201.71 388.79 209.20 394.99 212.37 C 393.97 212.63 392.96 212.92 391.96 213.23 C 388.82 210.99 386.02 207.91 385.06 204.09 C 384.04 199.75 384.48 195.22 385.54 190.94 Z" fill="#855c40" opacity="1.00" stroke="#855c40" stroke-width="0.25"/>
<path d="M 396.19 198.27 C 399.95 196.69 403.71 195.04 407.26 193.02 C 407.23 194.62 407.19 196.23 407.20 197.83 C 404.36 199.36 401.56 200.94 398.79 202.58 C 398.22 202.44 397.07 202.16 396.49 202.02 C 396.39 200.76 396.29 199.52 396.19 198.27 Z" fill="#ed986f" opacity="1.00" stroke="#ed986f" stroke-width="0.25"/>
<path d="M 386.51 195.15 C 386.87 195.08 387.59 194.93 387.95 194.86 C 389.78 197.68 392.87 198.97 396.19 198.27 C 396.29 199.52 396.39 200.76 396.49 202.02 C 396.68 205.51 397.18 209.34 394.99 212.37 C 388.79 209.20 386.38 201.71 386.51 195.15 Z" fill="#86512a" opacity="1.00" stroke="#86512a" stroke-width="0.25"/>
<path d="M 232.92 210.58 C 233.42 205.83 234.61 201.20 235.59 196.53 C 237.26 197.81 239.09 198.91 240.63 200.37 C 241.34 202.87 241.25 205.74 240.17 208.12 C 238.35 209.49 236.12 210.16 233.91 210.58 C 233.66 210.58 233.16 210.58 232.92 210.58 Z" fill="#e1a043" opacity="1.00" stroke="#e1a043" stroke-width="0.25"/>
<path d="M 420.82 197.89 C 420.72 197.49 420.54 196.69 420.44 196.29 C 423.92 198.67 428.31 198.38 432.01 200.14 C 435.00 201.61 435.25 205.28 435.87 208.15 C 430.15 205.96 424.88 202.50 420.82 197.89 Z" fill="#885c39" opacity="1.00" stroke="#885c39" stroke-width="0.25"/>
<path d="M 398.79 202.58 C 401.56 200.94 404.36 199.36 407.20 197.83 C 407.30 201.21 407.44 205.19 410.62 207.22 C 409.31 210.29 412.66 211.97 414.64 213.52 C 413.59 219.79 410.15 225.32 406.10 230.09 C 402.30 234.11 396.41 233.90 391.35 233.48 C 389.07 230.89 386.71 227.69 387.75 224.02 C 388.77 220.41 388.63 215.54 391.96 213.23 C 392.96 212.92 393.97 212.63 394.99 212.37 C 397.18 209.34 396.68 205.51 396.49 202.02 C 397.07 202.16 398.22 202.44 398.79 202.58 Z" fill="#ffc192" opacity="1.00" stroke="#ffc192" stroke-width="0.25"/>
<path d="M 185.48 200.21 C 187.17 200.24 188.79 200.74 190.26 201.56 C 186.60 207.00 183.21 213.58 176.45 215.63 C 173.31 217.14 169.93 215.66 167.42 213.64 C 163.10 210.77 161.16 205.76 157.91 201.91 C 159.10 201.56 160.29 201.22 161.48 200.88 C 162.74 207.17 167.62 212.03 173.17 214.86 C 178.56 213.16 182.20 208.25 185.56 203.96 C 185.54 202.70 185.51 201.45 185.48 200.21 Z" fill="#75a389" opacity="1.00" stroke="#75a389" stroke-width="0.25"/>
<path d="M 431.22 201.27 C 431.76 201.82 431.76 201.82 431.22 201.27 Z" fill="#f8d6bb" opacity="1.00" stroke="#f8d6bb" stroke-width="0.25"/>
<path d="M 142.91 207.05 C 147.88 205.26 153.00 203.89 157.91 201.91 C 161.16 205.76 163.10 210.77 167.42 213.64 C 169.93 215.66 173.31 217.14 176.45 215.63 C 183.21 213.58 186.60 207.00 190.26 201.56 C 194.43 202.19 198.24 204.55 202.25 205.92 C 205.25 207.40 209.17 207.89 210.99 211.01 C 213.25 214.79 215.61 218.54 217.46 222.55 C 216.06 226.24 214.91 230.02 214.16 233.89 C 213.87 237.10 210.18 239.07 207.26 238.69 C 205.79 237.45 204.62 235.81 204.08 233.96 C 203.32 226.96 205.92 219.58 203.41 212.80 C 202.64 223.77 203.04 234.88 200.69 245.70 C 199.50 253.57 196.77 261.11 195.77 269.01 C 195.24 272.38 194.70 275.85 193.07 278.90 C 190.34 284.12 185.20 287.41 181.81 292.14 C 186.02 294.07 190.72 292.81 195.07 294.10 C 194.12 294.94 193.18 295.79 192.26 296.67 C 184.56 297.85 176.74 297.80 168.97 297.69 C 159.94 297.62 151.66 293.42 143.97 289.10 C 143.86 289.56 143.66 290.48 143.55 290.95 C 142.97 289.55 142.31 288.19 141.65 286.84 C 143.43 280.34 144.26 273.68 144.97 266.99 C 147.37 257.20 144.76 247.24 144.50 237.37 C 144.27 237.36 143.80 237.35 143.57 237.34 C 144.19 236.70 144.82 236.06 145.46 235.43 C 145.10 229.55 144.41 223.68 143.52 217.85 C 142.21 225.15 140.10 232.29 137.88 239.35 C 133.45 235.27 131.16 229.44 126.59 225.50 C 128.44 229.57 131.19 233.14 133.46 236.97 C 130.50 234.66 128.69 231.20 125.55 229.10 L 125.44 229.00 L 124.28 227.97 C 128.75 223.45 132.88 218.63 136.55 213.41 C 138.43 211.11 139.87 208.02 142.91 207.05 Z" fill="#6bc3ad" opacity="1.00" stroke="#6bc3ad" stroke-width="0.25"/>
<path d="M 281.73 203.99 C 281.19 209.09 279.33 213.95 278.88 219.07 C 276.51 232.97 279.45 247.14 277.33 261.08 C 276.60 264.89 276.73 269.39 273.58 272.19 C 274.96 265.88 276.68 259.55 276.66 253.04 C 276.66 246.12 276.67 239.20 276.76 232.29 C 273.04 230.79 269.03 229.63 265.88 227.06 C 265.68 225.10 266.51 223.21 266.88 221.32 C 267.50 223.10 268.08 224.90 268.66 226.70 C 271.11 227.26 273.53 228.02 276.03 228.37 C 277.48 227.11 276.91 224.75 277.36 223.03 C 278.49 217.21 275.59 211.59 276.51 205.77 C 277.27 207.86 277.89 210.00 278.48 212.16 C 279.28 209.33 280.33 206.58 281.73 203.99 Z" fill="#7a446e" opacity="1.00" stroke="#7a446e" stroke-width="0.25"/>
<path d="M 325.49 225.07 C 326.11 219.31 325.66 213.49 326.40 207.74 C 326.49 216.63 328.94 225.17 330.98 233.75 C 336.57 230.41 343.13 229.97 349.29 228.30 C 350.09 229.91 350.58 231.65 350.60 233.47 C 345.23 230.15 338.10 232.86 333.66 236.65 C 332.93 236.59 331.48 236.48 330.75 236.42 C 330.47 239.07 330.14 241.71 329.79 244.36 C 328.21 244.36 326.64 244.29 325.07 244.18 C 326.34 237.86 324.77 231.44 325.49 225.07 Z" fill="#754574" opacity="1.00" stroke="#754574" stroke-width="0.25"/>
<path d="M 225.81 209.99 C 226.00 210.11 226.38 210.34 226.56 210.45 C 226.82 210.95 227.34 211.95 227.60 212.44 C 228.42 211.85 229.24 211.25 230.10 210.69 C 230.50 210.67 231.32 210.63 231.73 210.61 C 230.76 212.22 229.87 213.88 229.04 215.57 C 226.80 221.60 221.88 226.58 221.36 233.18 C 221.30 233.66 221.19 234.64 221.13 235.12 C 219.29 235.14 217.45 235.16 215.62 235.18 C 215.74 231.23 217.21 227.53 218.01 223.71 C 218.79 220.80 219.15 217.57 221.18 215.20 C 222.73 213.47 224.41 211.85 225.81 209.99 Z" fill="#fbc195" opacity="1.00" stroke="#fbc195" stroke-width="0.25"/>
<path d="M 231.73 210.61 C 232.03 210.60 232.62 210.59 232.92 210.58 C 233.16 210.58 233.66 210.58 233.91 210.58 C 232.22 213.83 230.08 217.18 230.29 220.98 C 230.39 223.87 233.16 225.61 235.56 226.59 C 238.95 227.98 242.64 226.76 245.94 225.71 C 246.49 225.96 247.57 226.46 248.12 226.71 C 243.47 227.82 238.35 229.71 233.77 227.31 C 228.86 225.64 229.97 219.62 229.04 215.57 C 229.87 213.88 230.76 212.22 231.73 210.61 Z" fill="#404160" opacity="1.00" stroke="#404160" stroke-width="0.25"/>
<path d="M 254.97 217.96 C 256.76 215.19 257.62 210.80 261.43 210.25 C 259.46 213.86 257.60 217.56 256.35 221.50 C 253.60 226.63 257.42 232.51 254.92 237.74 C 254.18 240.84 251.54 242.73 249.01 244.35 C 247.71 244.90 246.41 245.46 245.12 246.04 C 240.73 244.73 235.88 243.92 232.42 240.67 C 229.84 238.44 227.58 235.17 223.74 235.44 C 222.87 234.77 222.09 233.97 221.36 233.18 C 221.88 226.58 226.80 221.60 229.04 215.57 C 229.97 219.62 228.86 225.64 233.77 227.31 C 238.35 229.71 243.47 227.82 248.12 226.71 C 247.57 226.46 246.49 225.96 245.94 225.71 C 249.82 224.38 253.32 221.81 254.97 217.96 Z" fill="#40548d" opacity="1.00" stroke="#40548d" stroke-width="0.25"/>
<path d="M 203.41 212.80 C 205.92 219.58 203.32 226.96 204.08 233.96 C 204.62 235.81 205.79 237.45 207.26 238.69 C 210.18 239.07 213.87 237.10 214.16 233.89 C 214.91 230.02 216.06 226.24 217.46 222.55 L 218.01 223.71 C 217.21 227.53 215.74 231.23 215.62 235.18 C 215.47 236.46 215.51 237.81 215.09 239.05 C 213.17 241.07 210.66 242.40 208.38 243.95 C 206.55 241.62 204.86 239.19 203.30 236.67 C 202.54 245.35 202.93 254.08 202.27 262.77 C 201.50 270.18 202.87 277.68 204.95 284.78 C 204.78 285.77 204.63 286.77 204.50 287.77 C 201.25 289.72 197.81 291.44 195.07 294.10 C 190.72 292.81 186.02 294.07 181.81 292.14 C 185.20 287.41 190.34 284.12 193.07 278.90 C 194.70 275.85 195.24 272.38 195.77 269.01 C 196.77 261.11 199.50 253.57 200.69 245.70 C 203.04 234.88 202.64 223.77 203.41 212.80 Z" fill="#59ac99" opacity="1.00" stroke="#59ac99" stroke-width="0.25"/>
<path d="M 380.82 218.88 C 381.98 215.69 385.43 214.54 388.44 213.85 C 386.65 220.22 384.47 226.53 381.17 232.29 C 379.01 235.82 378.53 240.41 380.37 244.17 C 377.59 242.12 378.35 238.09 379.42 235.27 C 381.97 230.13 379.34 224.25 380.82 218.88 Z" fill="#f4ba92" opacity="1.00" stroke="#f4ba92" stroke-width="0.25"/>
<path d="M 415.61 226.59 C 415.11 222.45 414.76 217.95 416.67 214.10 C 420.86 214.51 424.88 217.41 425.18 221.87 C 425.18 226.66 423.98 231.36 422.99 236.03 C 418.87 234.69 416.77 230.46 415.61 226.59 Z" fill="#e2be9f" opacity="1.00" stroke="#e2be9f" stroke-width="0.25"/>
<path d="M 417.03 215.98 C 419.60 216.03 422.47 217.13 422.78 220.06 C 423.19 224.13 424.48 229.43 421.01 232.54 C 419.59 230.78 417.87 229.13 417.15 226.94 C 416.51 223.32 416.85 219.62 417.03 215.98 Z" fill="#ffbf8d" opacity="1.00" stroke="#ffbf8d" stroke-width="0.25"/>
<path d="M 137.88 239.35 C 140.10 232.29 142.21 225.15 143.52 217.85 C 144.41 223.68 145.10 229.55 145.46 235.43 C 144.82 236.06 144.19 236.70 143.57 237.34 C 141.97 238.99 140.63 240.87 139.27 242.72 L 138.47 242.48 C 136.79 240.65 135.19 238.75 133.46 236.97 C 131.19 233.14 128.44 229.57 126.59 225.50 C 131.16 229.44 133.45 235.27 137.88 239.35 Z" fill="#51a893" opacity="1.00" stroke="#51a893" stroke-width="0.25"/>
<path d="M 254.92 237.74 C 257.42 232.51 253.60 226.63 256.35 221.50 C 256.33 225.58 256.67 230.01 259.75 233.04 C 259.88 238.34 259.09 243.64 257.28 248.63 C 253.18 248.01 249.11 247.20 245.12 246.04 C 246.41 245.46 247.71 244.90 249.01 244.35 C 251.54 242.73 254.18 240.84 254.92 237.74 Z" fill="#344677" opacity="1.00" stroke="#344677" stroke-width="0.25"/>
<path d="M 299.80 231.88 C 298.65 230.15 295.80 226.54 298.47 225.32 C 300.12 227.41 301.75 229.57 304.14 230.88 C 308.44 232.87 307.68 239.02 311.86 241.11 C 315.98 243.08 320.59 243.64 325.07 244.18 C 326.64 244.29 328.21 244.36 329.79 244.36 C 331.92 244.29 334.06 244.14 336.19 243.99 C 335.77 242.68 335.36 241.38 334.91 240.08 C 339.03 236.53 344.19 234.48 349.53 233.69 C 351.55 241.02 354.06 248.36 354.44 256.02 C 354.30 258.94 352.71 263.38 349.03 262.74 C 341.62 263.10 334.15 261.64 327.51 258.29 C 326.10 257.61 324.69 256.90 323.28 256.22 C 317.30 253.63 311.60 249.94 305.00 249.17 C 301.03 248.71 297.40 246.79 294.11 244.62 C 291.55 240.89 292.76 236.09 293.03 231.90 C 295.29 231.86 297.54 231.85 299.80 231.88 Z" fill="#ffc192" opacity="1.00" stroke="#ffc192" stroke-width="0.25"/>
<path d="M 125.44 229.00 L 125.55 229.10 C 128.04 234.79 132.04 239.79 137.01 243.51 C 134.85 246.09 132.04 248.18 130.29 251.07 C 130.58 254.75 131.61 258.34 131.72 262.05 C 132.12 269.74 131.21 277.57 133.28 285.11 C 133.83 290.87 141.65 291.65 142.62 297.38 C 143.04 299.84 143.78 302.22 144.70 304.54 C 144.12 304.72 142.96 305.08 142.37 305.26 C 141.05 303.42 139.83 301.52 138.55 299.65 C 137.95 301.24 137.33 302.83 136.78 304.44 C 136.28 306.67 137.22 308.82 137.85 310.93 C 137.45 310.93 136.65 310.95 136.25 310.95 C 135.02 309.02 133.94 307.01 132.85 305.00 C 132.39 305.14 131.49 305.40 131.04 305.54 C 130.41 305.05 129.78 304.57 129.15 304.09 C 128.91 304.55 128.43 305.47 128.19 305.93 C 127.35 302.06 127.31 298.02 125.84 294.30 C 125.19 292.60 125.26 290.76 125.13 288.97 C 119.75 276.27 115.00 262.86 114.64 248.93 C 116.61 241.56 122.74 236.05 125.44 229.00 Z" fill="#fec192" opacity="1.00" stroke="#fec192" stroke-width="0.25"/>
<path d="M 125.55 229.10 C 128.69 231.20 130.50 234.66 133.46 236.97 C 135.19 238.75 136.79 240.65 138.47 242.48 C 138.10 242.73 137.37 243.25 137.01 243.51 C 132.04 239.79 128.04 234.79 125.55 229.10 Z" fill="#929f84" opacity="1.00" stroke="#929f84" stroke-width="0.25"/>
<path d="M 333.66 236.65 C 338.10 232.86 345.23 230.15 350.60 233.47 L 349.53 233.69 C 344.19 234.48 339.03 236.53 334.91 240.08 C 334.50 238.93 334.08 237.78 333.66 236.65 Z" fill="#f3a688" opacity="1.00" stroke="#f3a688" stroke-width="0.25"/>
<path d="M 221.13 235.12 C 221.19 234.64 221.30 233.66 221.36 233.18 C 222.09 233.97 222.87 234.77 223.74 235.44 L 223.50 235.99 C 223.15 236.82 222.81 237.67 222.48 238.52 C 222.92 239.22 223.36 239.92 223.80 240.63 C 222.38 241.18 220.97 241.74 219.56 242.28 C 225.51 242.18 229.45 247.07 234.73 248.98 C 233.51 248.82 232.30 248.69 231.09 248.58 C 230.77 249.51 230.45 250.44 230.11 251.37 L 229.65 251.60 C 228.21 251.27 226.78 250.94 225.36 250.61 C 225.99 250.36 227.25 249.86 227.87 249.60 C 226.46 249.22 225.04 248.83 223.63 248.45 C 224.45 248.18 226.08 247.63 226.90 247.36 C 223.97 246.72 221.00 245.84 217.97 246.13 C 214.64 248.31 212.39 251.73 209.94 254.79 C 209.87 254.08 209.73 252.67 209.66 251.96 C 211.39 249.22 210.46 246.18 208.38 243.95 C 210.66 242.40 213.17 241.07 215.09 239.05 C 215.51 237.81 215.47 236.46 215.62 235.18 C 217.45 235.16 219.29 235.14 221.13 235.12 Z" fill="#f7ad82" opacity="1.00" stroke="#f7ad82" stroke-width="0.25"/>
<path d="M 266.54 259.97 C 263.42 252.33 263.46 243.81 265.79 235.96 C 265.74 239.66 264.99 243.30 264.68 246.98 C 264.72 252.26 266.56 257.34 268.84 262.05 C 269.81 263.83 269.88 265.88 269.66 267.85 C 268.97 268.90 268.26 269.95 267.55 271.00 C 267.29 269.40 267.03 267.81 266.77 266.22 C 266.05 266.82 265.33 267.43 264.62 268.03 C 264.02 266.28 263.42 264.53 262.82 262.78 C 264.05 261.84 265.30 260.90 266.54 259.97 Z" fill="#efb666" opacity="1.00" stroke="#efb666" stroke-width="0.25"/>
<path d="M 143.57 237.34 C 143.80 237.35 144.27 237.36 144.50 237.37 C 144.76 247.24 147.37 257.20 144.97 266.99 C 144.26 273.68 143.43 280.34 141.65 286.84 C 142.31 288.19 142.97 289.55 143.55 290.95 C 143.19 293.08 142.86 295.22 142.62 297.38 C 141.65 291.65 133.83 290.87 133.28 285.11 C 131.21 277.57 132.12 269.74 131.72 262.05 C 131.61 258.34 130.58 254.75 130.29 251.07 C 132.04 248.18 134.85 246.09 137.01 243.51 C 137.37 243.25 138.10 242.73 138.47 242.48 L 139.27 242.72 C 140.63 240.87 141.97 238.99 143.57 237.34 Z" fill="#fefefe" opacity="1.00" stroke="#fefefe" stroke-width="0.25"/>
<path d="M 203.30 236.67 C 204.86 239.19 206.55 241.62 208.38 243.95 C 210.46 246.18 211.39 249.22 209.66 251.96 C 206.52 262.61 208.02 274.06 204.95 284.78 C 202.87 277.68 201.50 270.18 202.27 262.77 C 202.93 254.08 202.54 245.35 203.30 236.67 Z" fill="#fefefd" opacity="1.00" stroke="#fefefd" stroke-width="0.25"/>
<path d="M 330.75 236.42 C 331.48 236.48 332.93 236.59 333.66 236.65 C 334.08 237.78 334.50 238.93 334.91 240.08 C 335.36 241.38 335.77 242.68 336.19 243.99 C 334.06 244.14 331.92 244.29 329.79 244.36 C 330.14 241.71 330.47 239.07 330.75 236.42 Z" fill="#fffafd" opacity="1.00" stroke="#fffafd" stroke-width="0.25"/>
<path d="M 404.78 247.63 C 408.13 246.79 411.49 245.93 414.34 243.88 C 413.56 248.47 408.40 248.84 404.78 247.63 Z" fill="#e0e0e0" opacity="1.00" stroke="#e0e0e0" stroke-width="0.25"/>
<path d="M 209.94 254.79 C 212.39 251.73 214.64 248.31 217.97 246.13 C 221.00 245.84 223.97 246.72 226.90 247.36 C 226.08 247.63 224.45 248.18 223.63 248.45 C 225.04 248.83 226.46 249.22 227.87 249.60 C 227.25 249.86 225.99 250.36 225.36 250.61 C 226.78 250.94 228.21 251.27 229.65 251.60 C 223.71 254.20 217.24 256.56 212.26 260.61 C 215.92 259.09 218.78 255.83 222.83 254.90 C 223.29 264.20 218.00 272.33 216.61 281.33 C 214.28 283.35 213.51 286.43 212.42 289.19 C 210.39 294.23 212.11 299.75 211.37 304.98 C 210.86 307.75 208.70 310.00 205.92 310.52 C 202.20 311.05 197.31 313.13 194.48 309.56 C 196.86 308.80 200.51 309.27 201.31 306.20 C 202.91 302.93 200.58 299.63 199.07 296.84 C 197.60 299.21 196.31 301.69 195.10 304.21 C 194.58 304.33 193.54 304.59 193.02 304.71 C 193.56 302.17 194.14 299.65 194.72 297.12 C 194.10 297.01 192.88 296.78 192.26 296.67 C 193.18 295.79 194.12 294.94 195.07 294.10 C 197.81 291.44 201.25 289.72 204.50 287.77 C 204.63 286.77 204.78 285.77 204.95 284.78 C 208.02 274.06 206.52 262.61 209.66 251.96 C 209.73 252.67 209.87 254.08 209.94 254.79 Z" fill="#fec091" opacity="1.00" stroke="#fec091" stroke-width="0.25"/>
<path d="M 230.11 251.37 C 230.45 250.44 230.77 249.51 231.09 248.58 C 232.30 248.69 233.51 248.82 234.73 248.98 C 235.04 249.14 235.67 249.45 235.99 249.60 C 232.24 250.59 229.25 253.13 226.13 255.28 C 224.37 256.16 224.54 258.36 224.11 259.99 C 223.12 266.95 219.76 273.28 218.38 280.15 C 217.87 282.20 219.01 284.12 219.63 286.01 C 218.41 285.39 217.19 284.78 215.98 284.17 C 216.13 283.46 216.45 282.04 216.61 281.33 C 218.00 272.33 223.29 264.20 222.83 254.90 C 218.78 255.83 215.92 259.09 212.26 260.61 C 217.24 256.56 223.71 254.20 229.65 251.60 L 230.11 251.37 Z" fill="#3e4e70" opacity="1.00" stroke="#3e4e70" stroke-width="0.25"/>
<path d="M 226.13 255.28 C 229.25 253.13 232.24 250.59 235.99 249.60 C 240.87 252.95 246.06 255.83 251.26 258.67 C 250.66 258.74 249.48 258.89 248.89 258.97 C 250.00 259.76 251.11 260.55 252.24 261.35 C 254.62 268.14 256.25 275.17 257.37 282.27 C 257.85 283.77 256.12 284.59 254.89 284.70 C 251.84 285.15 248.74 285.10 245.67 285.19 C 245.58 285.60 245.40 286.40 245.31 286.81 C 240.04 287.38 234.69 286.79 229.49 287.96 C 226.10 288.13 222.86 286.83 219.63 286.01 C 219.01 284.12 217.87 282.20 218.38 280.15 C 219.76 273.28 223.12 266.95 224.11 259.99 C 224.54 258.36 224.37 256.16 226.13 255.28 Z" fill="#41548c" opacity="1.00" stroke="#41548c" stroke-width="0.25"/>
<path d="M 151.10 255.42 C 152.23 257.09 152.47 259.12 153.00 261.02 C 154.15 265.42 156.81 269.20 158.80 273.24 C 157.75 272.65 156.45 272.29 155.78 271.20 C 152.79 266.54 150.13 261.12 151.10 255.42 Z" fill="#58ae9a" opacity="1.00" stroke="#58ae9a" stroke-width="0.25"/>
<path d="M 323.28 256.22 C 324.69 256.90 326.10 257.61 327.51 258.29 C 326.67 261.75 324.58 265.32 325.85 268.94 C 327.86 275.44 329.63 282.14 329.19 289.01 C 329.27 290.44 328.88 292.91 326.83 292.49 C 327.89 289.58 329.00 286.29 327.73 283.25 C 326.05 281.24 323.31 280.44 321.61 278.43 C 319.82 274.95 321.82 271.16 322.63 267.69 C 323.86 263.98 323.49 260.05 323.28 256.22 Z" fill="#6f3f6f" opacity="1.00" stroke="#6f3f6f" stroke-width="0.25"/>
<path d="M 248.89 258.97 C 249.48 258.89 250.66 258.74 251.26 258.67 C 253.47 259.64 255.67 260.64 257.96 261.43 C 258.08 264.20 257.90 267.12 259.16 269.69 C 261.45 274.85 263.78 280.03 265.04 285.56 C 263.42 286.12 261.80 286.67 260.18 287.22 C 250.11 289.08 239.65 288.85 229.49 287.96 C 234.69 286.79 240.04 287.38 245.31 286.81 C 245.40 286.40 245.58 285.60 245.67 285.19 C 248.74 285.10 251.84 285.15 254.89 284.70 C 256.12 284.59 257.85 283.77 257.37 282.27 C 256.25 275.17 254.62 268.14 252.24 261.35 C 251.11 260.55 250.00 259.76 248.89 258.97 Z" fill="#334478" opacity="1.00" stroke="#334478" stroke-width="0.25"/>
<path d="M 257.96 261.43 C 259.56 261.92 261.19 262.35 262.82 262.78 C 263.42 264.53 264.02 266.28 264.62 268.03 C 265.33 267.43 266.05 266.82 266.77 266.22 C 267.03 267.81 267.29 269.40 267.55 271.00 C 268.26 269.95 268.97 268.90 269.66 267.85 C 270.78 269.51 271.92 271.16 273.04 272.82 C 272.19 278.10 270.21 283.41 271.09 288.80 C 271.79 292.86 270.52 296.92 270.44 300.99 C 269.74 315.30 269.99 329.67 271.33 343.93 C 272.41 355.20 271.44 366.53 270.88 377.80 C 270.50 378.86 270.09 379.93 269.68 380.99 C 269.10 376.29 267.70 371.69 265.19 367.65 C 263.42 364.34 260.44 361.93 258.42 358.81 C 256.91 353.23 258.77 347.50 259.81 342.01 C 262.30 328.99 265.47 316.08 266.85 302.88 C 267.52 297.05 266.45 291.21 265.04 285.56 C 263.78 280.03 261.45 274.85 259.16 269.69 C 257.90 267.12 258.08 264.20 257.96 261.43 Z" fill="#ffffff" opacity="1.00" stroke="#ffffff" stroke-width="0.25"/>
<path d="M 422.16 281.26 C 422.57 280.66 423.00 280.05 423.43 279.46 C 429.03 289.28 432.12 301.08 429.32 312.28 C 428.05 316.89 427.23 321.77 424.76 325.94 C 425.85 317.22 429.67 308.87 429.01 299.96 C 428.74 294.50 426.84 289.26 424.44 284.40 C 423.84 282.50 421.53 282.72 419.97 282.91 C 409.41 284.65 398.62 284.75 387.97 283.81 C 385.82 283.68 382.51 283.20 382.00 286.08 C 377.70 300.27 377.15 315.32 377.96 330.04 C 378.31 338.43 378.74 346.86 380.57 355.09 C 381.93 360.71 381.32 366.74 383.78 372.09 C 385.23 372.42 386.70 372.77 388.17 373.12 C 386.70 373.39 385.23 373.67 383.78 373.95 C 383.85 380.32 384.59 386.66 384.71 393.04 C 384.72 397.76 390.82 397.83 394.20 398.93 C 390.94 398.77 387.67 398.51 384.51 397.64 C 384.32 397.60 383.94 397.51 383.75 397.46 C 383.65 391.61 382.45 385.83 382.57 379.97 C 382.61 376.55 382.37 373.10 381.24 369.85 C 379.93 366.43 380.55 362.72 379.85 359.20 C 376.45 341.70 375.77 323.75 376.87 305.98 C 377.61 297.60 379.22 289.33 381.76 281.31 C 385.86 281.89 389.85 283.19 394.00 283.45 C 403.44 283.90 412.88 282.90 422.16 281.26 Z" fill="#dca959" opacity="1.00" stroke="#dca959" stroke-width="0.25"/>
<path d="M 387.97 283.81 C 398.62 284.75 409.41 284.65 419.97 282.91 C 421.53 282.72 423.84 282.50 424.44 284.40 C 426.84 289.26 428.74 294.50 429.01 299.96 C 429.67 308.87 425.85 317.22 424.76 325.94 C 421.85 334.91 417.54 343.35 414.18 352.16 C 412.24 357.60 408.56 362.95 409.48 368.96 C 413.29 376.46 418.26 383.82 418.72 392.50 C 418.61 393.20 418.39 394.60 418.29 395.31 C 413.25 397.83 407.58 398.28 402.06 398.59 C 399.62 390.82 398.28 382.73 395.00 375.23 C 396.50 375.16 398.23 375.72 399.56 374.77 C 399.76 374.09 400.15 372.74 400.35 372.07 C 399.42 372.75 398.50 373.44 397.58 374.14 C 393.68 372.33 391.88 368.34 389.84 364.84 C 389.21 369.33 391.03 373.62 391.80 377.98 C 393.01 384.99 394.76 391.92 395.24 399.04 L 394.20 398.93 C 390.82 397.83 384.72 397.76 384.71 393.04 C 384.59 386.66 383.85 380.32 383.78 373.95 C 385.23 373.67 386.70 373.39 388.17 373.12 C 386.70 372.77 385.23 372.42 383.78 372.09 C 381.32 366.74 381.93 360.71 380.57 355.09 C 378.74 346.86 378.31 338.43 377.96 330.04 C 377.15 315.32 377.70 300.27 382.00 286.08 C 382.51 283.20 385.82 283.68 387.97 283.81 Z" fill="#fe8c43" opacity="1.00" stroke="#fe8c43" stroke-width="0.25"/>
<path d="M 260.18 287.22 C 261.80 286.67 263.42 286.12 265.04 285.56 C 266.45 291.21 267.52 297.05 266.85 302.88 C 265.47 316.08 262.30 328.99 259.81 342.01 C 258.77 347.50 256.91 353.23 258.42 358.81 C 260.44 361.93 263.42 364.34 265.19 367.65 C 267.70 371.69 269.10 376.29 269.68 380.99 C 270.09 379.93 270.50 378.86 270.88 377.80 C 270.73 387.02 271.08 396.24 271.16 405.46 C 269.78 408.80 269.89 412.38 270.73 415.83 C 270.88 417.65 270.43 419.81 271.95 421.18 C 275.93 423.21 280.60 423.54 284.93 422.64 C 285.19 425.14 285.46 427.65 285.77 430.15 C 285.49 430.09 284.92 429.96 284.64 429.90 C 284.54 428.15 284.45 426.40 284.36 424.66 C 281.07 423.67 277.64 423.33 274.22 423.60 C 274.67 428.22 278.19 431.50 280.99 434.87 C 282.22 433.59 283.45 432.31 284.67 431.03 C 284.68 431.88 284.69 433.58 284.69 434.43 C 283.32 434.78 281.95 435.15 280.59 435.51 C 278.70 434.45 276.80 433.21 276.27 430.96 C 275.82 428.92 273.46 428.92 271.91 428.18 C 271.32 426.69 270.72 425.22 270.15 423.74 C 270.05 423.39 269.84 422.68 269.73 422.33 C 269.66 421.44 269.52 419.65 269.45 418.76 C 269.18 418.64 268.64 418.41 268.37 418.29 C 267.82 417.98 266.74 417.36 266.20 417.05 C 266.32 405.31 265.92 393.32 261.90 382.15 C 257.75 370.96 253.31 359.47 253.51 347.35 C 254.05 332.90 256.45 318.62 258.35 304.31 C 259.16 298.93 258.03 293.45 258.93 288.09 C 259.24 287.88 259.87 287.44 260.18 287.22 Z" fill="#e0e0df" opacity="1.00" stroke="#e0e0df" stroke-width="0.25"/>
<path d="M 215.66 288.06 C 216.52 293.43 214.47 298.66 214.61 304.02 C 214.48 319.73 218.06 335.15 221.48 350.39 C 222.27 354.20 221.43 358.32 223.30 361.89 C 223.71 361.39 224.12 360.89 224.53 360.39 C 225.09 361.17 225.65 361.95 226.22 362.74 C 227.10 362.79 228.87 362.88 229.76 362.93 C 229.31 363.43 228.41 364.43 227.95 364.93 C 226.39 365.82 225.19 363.74 223.93 363.11 C 224.50 370.07 224.05 377.12 225.30 384.03 C 226.91 392.64 230.04 400.84 232.82 409.11 C 233.85 412.36 234.34 415.76 235.65 418.92 C 235.27 418.89 234.52 418.83 234.15 418.80 C 231.84 411.21 229.73 403.55 227.06 396.07 C 224.27 388.02 223.07 379.52 222.98 371.02 C 223.03 366.32 221.66 361.82 220.70 357.28 C 219.63 344.93 215.94 332.99 214.47 320.69 C 213.24 309.86 213.02 298.71 215.66 288.06 Z" fill="#dedede" opacity="1.00" stroke="#dedede" stroke-width="0.25"/>
<path d="M 143.97 289.10 C 151.66 293.42 159.94 297.62 168.97 297.69 C 176.74 297.80 184.56 297.85 192.26 296.67 C 192.88 296.78 194.10 297.01 194.72 297.12 C 194.14 299.65 193.56 302.17 193.02 304.71 C 193.54 304.59 194.58 304.33 195.10 304.21 C 196.31 301.69 197.60 299.21 199.07 296.84 C 200.58 299.63 202.91 302.93 201.31 306.20 C 200.51 309.27 196.86 308.80 194.48 309.56 C 197.31 313.13 202.20 311.05 205.92 310.52 C 207.78 323.76 210.29 336.95 210.65 350.35 C 209.12 350.86 207.56 351.28 206.12 352.00 C 206.44 359.77 212.33 365.64 214.00 373.03 C 216.59 383.57 216.38 394.54 216.50 405.33 L 215.72 405.65 C 212.59 407.12 209.16 407.63 205.74 407.73 C 203.69 404.53 202.41 400.94 200.57 397.64 C 196.84 390.43 192.78 383.10 191.87 374.89 C 191.10 370.46 191.80 365.61 189.45 361.59 C 188.02 359.11 187.07 356.40 186.32 353.64 C 184.80 353.31 183.29 352.94 181.80 352.50 C 179.56 339.84 176.42 327.34 174.25 314.66 C 173.83 314.53 173.00 314.27 172.58 314.14 C 172.74 327.01 171.31 339.85 171.45 352.72 C 169.89 353.03 168.34 353.42 166.74 353.44 C 165.45 353.45 164.16 353.39 162.88 353.38 C 163.27 355.95 164.40 358.31 166.03 360.33 C 167.31 366.30 170.64 371.77 170.74 378.02 C 170.93 388.27 169.35 398.49 168.07 408.62 C 164.53 409.58 160.85 409.58 157.21 409.60 C 156.34 408.51 155.41 407.41 155.19 405.99 C 153.28 399.03 151.42 392.04 150.00 384.96 C 148.61 378.04 148.86 370.95 148.59 363.94 C 148.15 360.05 147.04 356.25 146.83 352.32 C 145.40 352.01 143.98 351.71 142.56 351.40 C 141.93 337.95 141.99 324.50 142.36 311.05 C 142.36 310.56 142.35 309.58 142.35 309.09 C 142.35 308.13 142.37 306.22 142.37 305.26 C 142.96 305.08 144.12 304.72 144.70 304.54 C 143.78 302.22 143.04 299.84 142.62 297.38 C 142.86 295.22 143.19 293.08 143.55 290.95 C 143.66 290.48 143.86 289.56 143.97 289.10 Z" fill="#504444" opacity="1.00" stroke="#504444" stroke-width="0.25"/>
<path d="M 271.09 288.80 C 282.48 291.84 294.15 294.22 305.99 294.41 C 311.60 294.48 317.14 293.31 322.75 293.33 C 322.77 307.94 321.91 322.55 320.23 337.07 C 319.96 339.49 319.56 342.04 320.62 344.34 C 320.98 344.92 321.71 346.09 322.07 346.68 C 321.49 351.08 320.46 355.48 320.72 359.95 C 321.11 364.39 322.55 368.64 323.90 372.87 C 322.93 372.50 321.96 372.13 320.99 371.77 C 321.74 377.68 322.54 383.61 322.55 389.58 C 322.59 393.61 321.18 397.64 322.02 401.64 C 322.48 401.90 323.41 402.43 323.87 402.69 C 323.28 405.68 322.54 408.63 321.93 411.61 C 320.95 416.03 322.05 420.55 321.49 425.01 C 318.62 425.34 315.70 425.65 312.85 425.08 C 311.36 424.75 309.91 424.36 308.47 423.88 C 307.35 423.48 306.23 423.06 305.12 422.64 C 304.74 418.34 307.14 414.31 306.13 410.04 C 304.78 401.09 303.28 392.05 304.11 382.98 C 304.29 376.88 305.44 370.61 303.64 364.64 C 302.35 360.20 303.00 355.51 301.96 351.03 C 299.46 339.29 299.09 327.25 297.49 315.39 C 298.35 311.51 298.65 307.54 299.55 303.67 C 297.42 303.99 295.33 304.48 293.32 305.24 C 291.60 304.54 289.89 303.83 288.19 303.11 C 286.94 317.04 286.00 331.01 285.98 345.00 C 285.92 349.83 285.03 354.58 284.48 359.36 C 283.56 366.91 287.48 373.86 288.23 381.23 C 288.48 393.25 284.07 404.67 282.71 416.52 C 281.39 416.91 280.07 417.31 278.76 417.71 C 280.93 417.98 283.10 418.27 285.26 418.60 C 282.20 423.20 276.32 419.64 271.95 421.18 C 270.43 419.81 270.88 417.65 270.73 415.83 C 272.20 412.52 271.48 408.91 271.16 405.46 C 271.08 396.24 270.73 387.02 270.88 377.80 C 271.44 366.53 272.41 355.20 271.33 343.93 C 269.99 329.67 269.74 315.30 270.44 300.99 C 270.52 296.92 271.79 292.86 271.09 288.80 Z" fill="#2e406d" opacity="1.00" stroke="#2e406d" stroke-width="0.25"/>
<path d="M 235.29 289.79 C 237.45 292.63 237.96 297.20 236.38 300.38 C 235.32 296.96 234.65 293.36 235.29 289.79 Z" fill="#e5e5e6" opacity="1.00" stroke="#e5e5e6" stroke-width="0.25"/>
<path d="M 322.75 293.33 L 324.05 293.36 C 324.88 304.64 323.43 315.91 322.66 327.16 C 322.25 332.92 321.56 338.64 320.62 344.34 C 319.56 342.04 319.96 339.49 320.23 337.07 C 321.91 322.55 322.77 307.94 322.75 293.33 Z" fill="#556995" opacity="1.00" stroke="#556995" stroke-width="0.25"/>
<path d="M 324.05 293.36 C 324.65 293.39 325.85 293.44 326.45 293.47 C 327.17 311.31 325.65 329.19 322.07 346.68 C 321.71 346.09 320.98 344.92 320.62 344.34 C 321.56 338.64 322.25 332.92 322.66 327.16 C 323.43 315.91 324.88 304.64 324.05 293.36 Z" fill="#243457" opacity="1.00" stroke="#243457" stroke-width="0.25"/>
<path d="M 125.84 294.30 C 127.31 298.02 127.35 302.06 128.19 305.93 C 128.43 305.47 128.91 304.55 129.15 304.09 C 129.78 304.57 130.41 305.05 131.04 305.54 C 131.49 305.40 132.39 305.14 132.85 305.00 C 133.94 307.01 135.02 309.02 136.25 310.95 C 135.79 311.25 134.88 311.84 134.42 312.14 L 133.86 312.51 C 129.90 311.33 127.05 307.89 125.77 304.07 C 125.31 300.83 125.54 297.54 125.84 294.30 Z" fill="#f1b28a" opacity="1.00" stroke="#f1b28a" stroke-width="0.25"/>
<path d="M 138.55 299.65 C 139.83 301.52 141.05 303.42 142.37 305.26 C 142.37 306.22 142.35 308.13 142.35 309.09 C 141.25 307.98 140.19 306.86 139.13 305.72 C 138.54 305.40 137.37 304.76 136.78 304.44 C 137.33 302.83 137.95 301.24 138.55 299.65 Z" fill="#faeade" opacity="1.00" stroke="#faeade" stroke-width="0.25"/>
<path d="M 226.99 301.15 C 229.76 302.19 232.33 303.71 235.14 304.67 C 236.97 305.44 238.51 303.87 240.04 303.12 C 238.19 310.96 238.30 319.07 238.05 327.06 C 237.87 336.74 237.75 346.59 240.26 356.01 C 241.07 359.34 243.18 362.12 244.73 365.12 C 249.81 376.76 253.62 388.89 258.29 400.69 C 260.28 406.33 263.03 411.99 262.72 418.12 C 260.61 414.68 260.73 410.45 259.10 406.81 C 254.28 393.67 249.19 380.62 244.44 367.46 C 241.80 362.73 239.33 357.94 237.42 352.86 C 236.85 357.35 236.54 362.17 238.74 366.31 C 243.26 374.73 244.99 384.62 243.50 394.07 C 243.07 402.30 241.11 410.47 241.70 418.73 C 240.56 418.79 239.42 418.85 238.29 418.90 C 237.68 403.98 240.31 388.82 236.73 374.10 C 232.26 359.20 232.65 343.39 233.20 328.00 C 233.31 321.14 234.03 314.30 234.66 307.47 C 231.12 306.74 227.90 304.87 226.99 301.15 Z" fill="#dedede" opacity="1.00" stroke="#dedede" stroke-width="0.25"/>
<path d="M 288.19 303.11 C 289.89 303.83 291.60 304.54 293.32 305.24 C 295.33 304.48 297.42 303.99 299.55 303.67 C 298.65 307.54 298.35 311.51 297.49 315.39 C 294.16 328.80 291.18 342.31 289.06 355.96 C 287.58 363.36 290.10 370.66 290.73 378.00 C 292.14 387.30 289.14 396.41 287.21 405.39 C 285.99 410.51 287.47 415.80 286.51 420.95 C 286.42 421.88 285.89 422.44 284.93 422.64 C 280.60 423.54 275.93 423.21 271.95 421.18 C 276.32 419.64 282.20 423.20 285.26 418.60 C 283.10 418.27 280.93 417.98 278.76 417.71 C 280.07 417.31 281.39 416.91 282.71 416.52 C 284.07 404.67 288.48 393.25 288.23 381.23 C 287.48 373.86 283.56 366.91 284.48 359.36 C 285.03 354.58 285.92 349.83 285.98 345.00 C 286.00 331.01 286.94 317.04 288.19 303.11 Z" fill="#24345e" opacity="1.00" stroke="#24345e" stroke-width="0.25"/>
<path d="M 137.85 310.93 C 137.22 308.82 136.28 306.67 136.78 304.44 C 137.37 304.76 138.54 305.40 139.13 305.72 C 140.19 306.86 141.25 307.98 142.35 309.09 C 142.35 309.58 142.36 310.56 142.36 311.05 C 139.83 312.08 137.14 312.57 134.42 312.14 C 134.88 311.84 135.79 311.25 136.25 310.95 C 136.65 310.95 137.45 310.93 137.85 310.93 Z" fill="#c27458" opacity="1.00" stroke="#c27458" stroke-width="0.25"/>
<path d="M 395.22 307.27 C 397.53 306.99 399.85 306.67 402.15 306.28 C 399.11 312.64 398.78 319.86 396.05 326.29 C 395.21 319.98 396.25 313.56 395.22 307.27 Z" fill="#e16f29" opacity="1.00" stroke="#e16f29" stroke-width="0.25"/>
<path d="M 162.88 353.38 C 164.16 353.39 165.45 353.45 166.74 353.44 C 166.61 355.74 166.45 358.05 166.03 360.33 C 164.40 358.31 163.27 355.95 162.88 353.38 Z" fill="#302728" opacity="1.00" stroke="#302728" stroke-width="0.25"/>
<path d="M 244.43 360.88 C 246.83 361.80 249.18 362.84 251.50 363.97 C 248.73 366.74 245.65 363.42 244.43 360.88 Z" fill="#e1e1e1" opacity="1.00" stroke="#e1e1e1" stroke-width="0.25"/>
<path d="M 389.84 364.84 C 391.88 368.34 393.68 372.33 397.58 374.14 C 398.50 373.44 399.42 372.75 400.35 372.07 C 400.15 372.74 399.76 374.09 399.56 374.77 C 398.23 375.72 396.50 375.16 395.00 375.23 C 398.28 382.73 399.62 390.82 402.06 398.59 C 401.71 398.62 401.00 398.66 400.65 398.68 C 398.84 398.79 397.04 398.90 395.24 399.04 C 394.76 391.92 393.01 384.99 391.80 377.98 C 391.03 373.62 389.21 369.33 389.84 364.84 Z" fill="#e86e2b" opacity="1.00" stroke="#e86e2b" stroke-width="0.25"/>
<path d="M 318.31 370.61 C 319.31 373.66 319.26 376.90 319.62 380.07 C 320.23 386.69 321.24 393.29 321.01 399.96 L 320.10 399.95 C 319.94 395.26 319.31 390.61 318.99 385.94 C 318.69 380.83 317.39 375.72 318.31 370.61 Z" fill="#5d709c" opacity="1.00" stroke="#5d709c" stroke-width="0.25"/>
<path d="M 320.99 371.77 C 321.96 372.13 322.93 372.50 323.90 372.87 C 326.80 382.58 325.98 392.91 323.87 402.69 C 323.41 402.43 322.48 401.90 322.02 401.64 C 321.18 397.64 322.59 393.61 322.55 389.58 C 322.54 383.61 321.74 377.68 320.99 371.77 Z" fill="#3e4e70" opacity="1.00" stroke="#3e4e70" stroke-width="0.25"/>
<path d="M 418.72 392.50 L 419.13 391.52 C 420.19 402.03 419.24 412.61 417.46 422.99 C 415.86 431.95 415.94 441.15 417.46 450.12 C 415.38 453.41 410.69 453.55 407.53 455.53 C 401.38 459.02 393.89 460.30 387.15 457.77 C 385.51 456.55 387.47 455.14 388.39 454.32 C 389.52 453.29 390.69 452.32 391.85 451.32 C 389.35 451.45 386.70 451.13 384.37 452.24 C 379.92 454.41 374.84 454.50 370.00 454.56 C 368.22 454.83 367.32 453.07 366.28 452.03 C 369.52 448.92 374.22 448.46 377.76 445.83 C 381.17 443.48 384.97 441.69 388.13 439.01 C 389.89 437.55 390.40 435.16 390.27 432.98 C 389.70 421.00 385.00 409.62 384.51 397.64 C 387.67 398.51 390.94 398.77 394.20 398.93 L 395.24 399.04 C 397.20 406.21 397.11 413.74 399.15 420.89 C 398.42 429.30 397.60 438.01 400.58 446.11 C 402.93 444.10 406.14 442.60 407.43 439.66 C 408.90 429.65 405.58 419.86 403.99 410.07 C 403.48 406.74 402.33 403.57 401.06 400.47 C 400.96 400.03 400.75 399.13 400.65 398.68 C 401.00 398.66 401.71 398.62 402.06 398.59 C 407.58 398.28 413.25 397.83 418.29 395.31 C 418.39 394.60 418.61 393.20 418.72 392.50 Z" fill="#fec192" opacity="1.00" stroke="#fec192" stroke-width="0.25"/>
<path d="M 395.24 399.04 C 397.04 398.90 398.84 398.79 400.65 398.68 C 400.75 399.13 400.96 400.03 401.06 400.47 C 400.81 407.31 400.07 414.11 399.15 420.89 C 397.11 413.74 397.20 406.21 395.24 399.04 Z" fill="#ee9c75" opacity="1.00" stroke="#ee9c75" stroke-width="0.25"/>
<path d="M 399.15 420.89 C 400.07 414.11 400.81 407.31 401.06 400.47 C 402.33 403.57 403.48 406.74 403.99 410.07 C 405.58 419.86 408.90 429.65 407.43 439.66 C 406.14 442.60 402.93 444.10 400.58 446.11 C 397.60 438.01 398.42 429.30 399.15 420.89 Z" fill="#fffefd" opacity="1.00" stroke="#fffefd" stroke-width="0.25"/>
<path d="M 205.74 407.73 C 209.16 407.63 212.59 407.12 215.72 405.65 C 216.36 408.89 216.98 412.22 216.45 415.54 C 217.68 414.33 218.26 414.58 218.19 416.30 C 214.82 417.00 211.30 417.84 209.16 420.78 C 209.01 420.75 208.71 420.69 208.56 420.66 C 208.28 418.47 207.90 416.28 207.27 414.17 C 206.67 412.04 206.17 409.89 205.74 407.73 Z" fill="#fec193" opacity="1.00" stroke="#fec193" stroke-width="0.25"/>
<path d="M 270.73 415.83 C 269.89 412.38 269.78 408.80 271.16 405.46 C 271.48 408.91 272.20 412.52 270.73 415.83 Z" fill="#f8fcfe" opacity="1.00" stroke="#f8fcfe" stroke-width="0.25"/>
<path d="M 157.21 409.60 C 160.85 409.58 164.53 409.58 168.07 408.62 C 168.50 412.45 168.49 416.32 168.60 420.17 C 168.64 422.69 168.58 425.20 168.49 427.73 C 166.11 427.26 163.81 426.49 161.71 425.27 C 161.50 423.35 161.19 421.40 159.95 419.85 L 159.91 419.53 C 159.65 416.55 159.27 413.58 158.76 410.64 C 158.46 411.11 157.86 412.06 157.56 412.54 L 157.28 412.97 C 157.26 412.13 157.23 410.44 157.21 409.60 Z" fill="#fec091" opacity="1.00" stroke="#fec091" stroke-width="0.25"/>
<path d="M 167.04 409.43 C 168.74 412.39 167.90 415.99 167.42 419.17 C 166.91 415.95 166.74 412.68 167.04 409.43 Z" fill="#d3a88c" opacity="1.00" stroke="#d3a88c" stroke-width="0.25"/>
<path d="M 157.56 412.54 C 157.86 412.06 158.46 411.11 158.76 410.64 C 159.27 413.58 159.65 416.55 159.91 419.53 C 157.63 418.04 157.96 414.88 157.56 412.54 Z" fill="#deb096" opacity="1.00" stroke="#deb096" stroke-width="0.25"/>
<path d="M 207.27 414.17 C 207.90 416.28 208.28 418.47 208.56 420.66 C 208.71 420.69 209.01 420.75 209.16 420.78 C 211.78 422.14 214.53 421.29 217.15 420.45 C 218.73 421.04 220.22 421.86 221.56 422.89 C 221.65 425.42 222.43 427.99 224.22 429.86 C 221.25 431.18 218.04 431.83 215.02 433.03 C 218.22 432.89 221.38 432.37 224.56 431.94 C 222.83 435.24 218.00 433.69 215.48 436.31 C 214.75 433.87 213.77 431.52 212.57 429.28 C 212.85 429.10 213.40 428.73 213.68 428.55 C 211.86 426.37 209.88 424.33 207.63 422.60 C 207.06 427.83 210.37 432.26 211.39 437.21 C 212.01 440.86 215.02 443.23 217.67 445.48 L 218.14 445.83 C 217.56 445.90 216.38 446.02 215.80 446.09 C 215.95 444.80 215.34 444.02 213.97 443.75 C 213.07 442.64 212.16 441.55 211.29 440.43 C 210.42 438.76 210.49 436.77 209.96 434.99 C 209.37 431.80 206.79 429.31 206.54 426.03 C 206.27 422.08 205.89 417.96 207.27 414.17 Z" fill="#366d66" opacity="1.00" stroke="#366d66" stroke-width="0.25"/>
<path d="M 209.16 420.78 C 211.30 417.84 214.82 417.00 218.19 416.30 C 218.45 416.96 218.98 418.28 219.25 418.93 C 219.67 419.13 220.51 419.51 220.94 419.71 C 219.66 419.91 218.40 420.15 217.15 420.45 C 214.53 421.29 211.78 422.14 209.16 420.78 Z" fill="#77b394" opacity="1.00" stroke="#77b394" stroke-width="0.25"/>
<path d="M 268.37 418.29 C 268.64 418.41 269.18 418.64 269.45 418.76 C 269.52 419.65 269.66 421.44 269.73 422.33 C 267.21 422.46 264.69 422.56 262.17 422.64 C 262.03 421.65 261.73 419.68 261.59 418.69 C 263.85 418.65 266.11 418.44 268.37 418.29 Z" fill="#579991" opacity="1.00" stroke="#579991" stroke-width="0.25"/>
<path d="M 234.15 418.80 C 234.52 418.83 235.27 418.89 235.65 418.92 C 236.31 418.91 237.63 418.91 238.29 418.90 C 239.42 418.85 240.56 418.79 241.70 418.73 C 241.71 420.27 241.71 421.81 241.70 423.35 C 239.25 423.28 236.81 423.24 234.36 423.25 C 234.20 421.76 234.13 420.28 234.15 418.80 Z" fill="#63a18d" opacity="1.00" stroke="#63a18d" stroke-width="0.25"/>
<path d="M 155.97 419.51 L 156.61 419.86 C 158.37 420.72 160.03 421.83 160.74 423.76 C 160.50 424.23 160.01 425.18 159.76 425.65 C 158.13 424.63 156.51 423.64 154.88 422.64 C 155.15 421.86 155.70 420.29 155.97 419.51 Z" fill="#6da698" opacity="1.00" stroke="#6da698" stroke-width="0.25"/>
<path d="M 156.61 419.86 C 157.45 419.86 159.11 419.86 159.95 419.85 C 161.19 421.40 161.50 423.35 161.71 425.27 C 163.81 426.49 166.11 427.26 168.49 427.73 C 168.58 425.20 168.64 422.69 168.60 420.17 C 169.51 421.00 170.46 421.79 171.31 422.71 C 172.73 427.15 172.50 431.90 172.89 436.50 C 166.41 438.37 159.47 438.47 153.28 441.36 C 146.45 444.43 137.92 445.74 131.34 441.38 C 130.94 441.15 130.54 440.94 130.15 440.73 C 130.33 440.02 130.70 438.60 130.88 437.89 C 131.39 437.73 132.40 437.42 132.91 437.26 C 132.57 438.44 132.22 439.62 131.88 440.80 C 134.85 441.86 137.84 443.23 141.07 443.07 C 146.33 442.95 151.29 440.97 156.17 439.17 C 161.19 437.26 166.82 437.70 171.66 435.21 C 171.57 432.70 171.49 430.19 171.43 427.70 C 167.64 429.43 163.71 428.36 160.29 426.33 C 159.73 427.34 159.17 428.35 158.60 429.36 C 155.93 429.93 153.10 430.49 151.24 432.69 C 150.41 432.63 149.59 432.58 148.76 432.53 L 148.63 432.52 C 148.64 432.60 148.65 432.75 148.66 432.83 C 148.56 433.16 148.37 433.82 148.27 434.15 C 146.72 435.29 145.09 436.31 143.46 437.34 C 141.62 436.50 139.74 435.72 137.78 435.19 C 139.88 434.08 141.97 432.94 144.16 432.00 L 143.66 433.66 C 145.61 432.56 147.50 431.36 149.32 430.06 C 149.49 429.15 149.68 428.27 149.88 427.38 L 149.97 426.98 C 150.33 427.17 151.04 427.56 151.40 427.75 C 154.18 426.41 157.83 428.87 159.76 425.65 C 160.01 425.18 160.50 424.23 160.74 423.76 C 160.03 421.83 158.37 420.72 156.61 419.86 Z" fill="#4f7c6a" opacity="1.00" stroke="#4f7c6a" stroke-width="0.25"/>
<path d="M 217.15 420.45 C 218.40 420.15 219.66 419.91 220.94 419.71 L 222.14 419.51 C 221.99 420.35 221.71 422.04 221.56 422.89 C 220.22 421.86 218.73 421.04 217.15 420.45 Z" fill="#60877f" opacity="1.00" stroke="#60877f" stroke-width="0.25"/>
<path d="M 148.86 423.43 C 150.77 422.64 152.85 422.67 154.88 422.64 C 156.51 423.64 158.13 424.63 159.76 425.65 C 157.83 428.87 154.18 426.41 151.40 427.75 C 151.04 427.56 150.33 427.17 149.97 426.98 C 151.39 426.50 152.20 425.24 153.16 424.21 C 151.73 423.96 150.29 423.70 148.86 423.43 Z" fill="#1e6052" opacity="1.00" stroke="#1e6052" stroke-width="0.25"/>
<path d="M 262.17 422.64 C 264.69 422.56 267.21 422.46 269.73 422.33 C 269.84 422.68 270.05 423.39 270.15 423.74 C 271.28 427.28 269.12 430.41 267.23 433.18 C 266.90 433.43 266.26 433.92 265.94 434.17 C 262.71 435.39 259.21 434.21 255.98 433.56 C 257.98 429.88 260.51 426.50 262.17 422.64 Z" fill="#fec08f" opacity="1.00" stroke="#fec08f" stroke-width="0.25"/>
<path d="M 207.63 422.60 C 209.88 424.33 211.86 426.37 213.68 428.55 C 213.40 428.73 212.85 429.10 212.57 429.28 C 213.77 431.52 214.75 433.87 215.48 436.31 C 218.00 433.69 222.83 435.24 224.56 431.94 C 221.38 432.37 218.22 432.89 215.02 433.03 C 218.04 431.83 221.25 431.18 224.22 429.86 L 224.75 429.63 C 225.11 430.21 225.82 431.38 226.18 431.97 C 226.00 432.19 225.64 432.65 225.46 432.88 C 227.14 435.55 229.75 439.05 227.33 442.11 C 225.32 445.53 221.20 445.69 217.67 445.48 C 215.02 443.23 212.01 440.86 211.39 437.21 C 210.37 432.26 207.06 427.83 207.63 422.60 Z" fill="#63bba5" opacity="1.00" stroke="#63bba5" stroke-width="0.25"/>
<path d="M 234.36 423.25 C 236.81 423.24 239.25 423.28 241.70 423.35 C 242.09 424.06 242.49 424.78 242.90 425.50 C 238.90 430.16 233.38 433.10 227.45 434.49 C 226.16 433.09 226.24 431.62 227.69 430.05 C 229.90 427.77 232.44 425.80 234.36 423.25 Z" fill="#fdc294" opacity="1.00" stroke="#fdc294" stroke-width="0.25"/>
<path d="M 215.22 424.12 C 216.18 423.33 218.87 424.08 217.75 425.59 C 216.56 427.32 212.37 425.59 215.22 424.12 Z" fill="#5fa08d" opacity="1.00" stroke="#5fa08d" stroke-width="0.25"/>
<path d="M 270.15 423.74 C 270.72 425.22 271.32 426.69 271.91 428.18 C 273.46 428.92 275.82 428.92 276.27 430.96 C 276.80 433.21 278.70 434.45 280.59 435.51 L 280.11 437.09 C 278.21 436.14 276.35 435.12 274.47 434.13 C 270.41 438.02 265.18 440.29 260.79 443.74 C 260.02 443.20 259.26 442.65 258.49 442.12 C 262.95 440.05 266.94 436.90 269.78 432.88 C 269.14 432.95 267.87 433.11 267.23 433.18 C 269.12 430.41 271.28 427.28 270.15 423.74 Z" fill="#941a2c" opacity="1.00" stroke="#941a2c" stroke-width="0.25"/>
<path d="M 274.22 423.60 C 277.64 423.33 281.07 423.67 284.36 424.66 C 284.45 426.40 284.54 428.15 284.64 429.90 L 284.67 431.03 C 283.45 432.31 282.22 433.59 280.99 434.87 C 278.19 431.50 274.67 428.22 274.22 423.60 Z" fill="#ffc18f" opacity="1.00" stroke="#ffc18f" stroke-width="0.25"/>
<path d="M 308.47 423.88 C 309.91 424.36 311.36 424.75 312.85 425.08 C 314.55 425.47 316.28 425.75 318.01 426.06 C 318.24 428.74 318.08 431.44 317.69 434.10 C 317.27 433.91 316.44 433.54 316.03 433.35 C 313.39 432.22 310.48 432.64 307.83 433.44 C 307.51 430.23 307.88 427.03 308.47 423.88 Z" fill="#f9c293" opacity="1.00" stroke="#f9c293" stroke-width="0.25"/>
<path d="M 160.29 426.33 C 163.71 428.36 167.64 429.43 171.43 427.70 C 171.49 430.19 171.57 432.70 171.66 435.21 C 166.82 437.70 161.19 437.26 156.17 439.17 C 151.29 440.97 146.33 442.95 141.07 443.07 C 137.84 443.23 134.85 441.86 131.88 440.80 C 132.22 439.62 132.57 438.44 132.91 437.26 L 133.12 436.52 C 134.67 436.05 136.20 435.51 137.78 435.19 C 139.74 435.72 141.62 436.50 143.46 437.34 C 145.09 436.31 146.72 435.29 148.27 434.15 C 148.37 433.82 148.56 433.16 148.66 432.83 L 148.76 432.53 C 149.59 432.58 150.41 432.63 151.24 432.69 C 153.10 430.49 155.93 429.93 158.60 429.36 C 159.17 428.35 159.73 427.34 160.29 426.33 Z" fill="#63baa5" opacity="1.00" stroke="#63baa5" stroke-width="0.25"/>
<path d="M 227.45 434.49 C 233.38 433.10 238.90 430.16 242.90 425.50 C 244.06 428.07 244.53 430.85 244.18 433.66 C 239.31 434.58 234.42 435.46 229.65 436.81 C 228.90 436.04 228.17 435.27 227.45 434.49 Z" fill="#e46693" opacity="1.00" stroke="#e46693" stroke-width="0.25"/>
<path d="M 144.16 432.00 C 145.81 430.18 148.13 429.11 149.88 427.38 C 149.68 428.27 149.49 429.15 149.32 430.06 C 147.50 431.36 145.61 432.56 143.66 433.66 L 144.16 432.00 Z" fill="#243457" opacity="1.00" stroke="#243457" stroke-width="0.25"/>
<path d="M 216.35 427.01 C 217.07 427.03 218.50 427.07 219.21 427.09 C 218.28 427.76 217.36 428.44 216.44 429.12 C 217.33 429.22 219.10 429.42 219.99 429.51 C 218.49 429.61 216.98 429.69 215.48 429.80 C 215.77 428.86 216.06 427.93 216.35 427.01 Z" fill="#6bc3ad" opacity="1.00" stroke="#6bc3ad" stroke-width="0.25"/>
<path d="M 226.18 431.97 C 226.56 431.49 227.31 430.53 227.69 430.05 C 226.24 431.62 226.16 433.09 227.45 434.49 C 228.17 435.27 228.90 436.04 229.65 436.81 C 234.42 435.46 239.31 434.58 244.18 433.66 C 243.96 434.34 243.53 435.72 243.31 436.41 C 240.83 436.90 238.30 437.25 235.79 436.83 C 233.56 437.67 231.39 438.67 229.26 439.74 C 228.81 443.11 228.81 447.33 224.82 448.50 C 226.26 446.84 227.95 445.28 228.44 443.03 C 225.66 445.22 221.63 447.68 218.14 445.83 L 217.67 445.48 C 221.20 445.69 225.32 445.53 227.33 442.11 C 229.75 439.05 227.14 435.55 225.46 432.88 C 225.64 432.65 226.00 432.19 226.18 431.97 Z" fill="#404160" opacity="1.00" stroke="#404160" stroke-width="0.25"/>
<path d="M 284.64 429.90 C 284.92 429.96 285.49 430.09 285.77 430.15 C 286.17 430.23 286.97 430.39 287.37 430.47 C 287.48 432.33 287.58 434.19 287.67 436.07 C 287.48 435.94 287.08 435.68 286.89 435.55 C 284.76 436.61 282.57 437.85 280.11 437.09 L 280.59 435.51 C 281.95 435.15 283.32 434.78 284.69 434.43 C 284.69 433.58 284.68 431.88 284.67 431.03 L 284.64 429.90 Z" fill="#352226" opacity="1.00" stroke="#352226" stroke-width="0.25"/>
<path d="M 148.63 432.52 L 148.76 432.53 L 148.66 432.83 C 148.65 432.75 148.64 432.60 148.63 432.52 Z" fill="#0a4a3a" opacity="1.00" stroke="#0a4a3a" stroke-width="0.25"/>
<path d="M 307.83 433.44 C 310.48 432.64 313.39 432.22 316.03 433.35 C 313.30 433.61 309.22 432.52 308.06 435.79 C 311.66 436.36 315.31 436.52 318.95 436.63 C 319.28 436.67 319.94 436.74 320.27 436.78 C 320.50 439.16 320.26 441.58 320.95 443.92 C 320.96 444.48 320.98 445.60 320.99 446.16 C 320.13 444.71 319.31 443.25 318.49 441.79 C 318.36 443.80 318.24 445.81 318.11 447.83 L 317.13 447.74 C 316.55 444.65 316.04 441.55 315.32 438.50 C 312.46 438.75 309.59 438.61 306.75 438.29 C 305.81 438.39 304.88 438.51 303.95 438.65 C 303.73 436.05 305.43 434.15 307.83 433.44 Z" fill="#7f2028" opacity="1.00" stroke="#7f2028" stroke-width="0.25"/>
<path d="M 267.23 433.18 C 267.87 433.11 269.14 432.95 269.78 432.88 C 266.94 436.90 262.95 440.05 258.49 442.12 C 257.10 442.22 255.71 442.32 254.32 442.41 C 257.73 439.94 261.54 438.04 264.68 435.20 C 264.99 434.94 265.62 434.43 265.94 434.17 C 266.26 433.92 266.90 433.43 267.23 433.18 Z" fill="#601626" opacity="1.00" stroke="#601626" stroke-width="0.25"/>
<path d="M 316.03 433.35 C 316.44 433.54 317.27 433.91 317.69 434.10 C 318.00 434.73 318.64 436.00 318.95 436.63 C 315.31 436.52 311.66 436.36 308.06 435.79 C 309.22 432.52 313.30 433.61 316.03 433.35 Z" fill="#b64447" opacity="1.00" stroke="#b64447" stroke-width="0.25"/>
<path d="M 250.92 443.40 C 249.66 439.49 252.54 436.17 255.20 433.71 C 258.29 434.57 261.45 435.21 264.68 435.20 C 261.54 438.04 257.73 439.94 254.32 442.41 C 253.17 442.67 252.03 443.01 250.92 443.40 Z" fill="#4a6290" opacity="1.00" stroke="#4a6290" stroke-width="0.25"/>
<path d="M 274.47 434.13 C 276.35 435.12 278.21 436.14 280.11 437.09 C 282.57 437.85 284.76 436.61 286.89 435.55 C 287.08 435.68 287.48 435.94 287.67 436.07 L 288.38 436.56 C 288.42 438.74 288.56 440.92 288.83 443.09 C 282.95 444.25 276.81 443.81 271.10 445.78 C 263.21 447.88 254.50 450.06 246.66 446.61 C 247.83 445.25 249.22 444.05 250.92 443.40 C 252.03 443.01 253.17 442.67 254.32 442.41 C 255.71 442.32 257.10 442.22 258.49 442.12 C 259.26 442.65 260.02 443.20 260.79 443.74 C 265.18 440.29 270.41 438.02 274.47 434.13 Z" fill="#db2e27" opacity="1.00" stroke="#db2e27" stroke-width="0.25"/>
<path d="M 171.47 439.63 C 171.89 439.24 172.74 438.45 173.16 438.06 C 172.68 439.08 172.16 440.31 170.87 440.42 C 165.27 441.95 159.25 441.18 153.80 443.41 C 146.71 446.27 138.41 447.95 131.11 444.89 C 128.95 444.31 129.21 441.94 129.16 440.20 L 130.15 440.73 C 130.54 440.94 130.94 441.15 131.34 441.38 C 130.36 441.84 130.06 442.50 130.42 443.37 C 132.84 445.99 136.79 445.44 140.02 445.66 C 144.48 445.91 148.82 444.70 152.90 443.03 C 158.80 440.56 165.38 441.27 171.47 439.63 Z" fill="#3c3942" opacity="1.00" stroke="#3c3942" stroke-width="0.25"/>
<path d="M 303.95 438.65 C 304.88 438.51 305.81 438.39 306.75 438.29 C 307.55 439.73 308.35 441.17 308.97 442.70 C 307.73 442.45 306.50 442.20 305.28 441.96 C 305.06 445.59 305.12 449.26 305.92 452.83 C 311.11 452.00 316.40 451.93 321.60 452.80 C 321.92 451.05 322.24 449.29 322.52 447.55 C 323.35 449.32 323.90 451.19 324.38 453.09 C 318.75 455.50 312.62 452.51 306.80 454.27 C 305.68 453.46 304.57 452.64 303.46 451.83 C 303.97 447.45 303.95 443.04 303.95 438.65 Z" fill="#9b373a" opacity="1.00" stroke="#9b373a" stroke-width="0.25"/>
<path d="M 306.75 438.29 C 309.59 438.61 312.46 438.75 315.32 438.50 C 316.04 441.55 316.55 444.65 317.13 447.74 C 314.52 447.58 311.91 447.68 309.30 447.80 C 309.20 446.10 309.11 444.39 308.97 442.70 C 308.35 441.17 307.55 439.73 306.75 438.29 Z" fill="#92181f" opacity="1.00" stroke="#92181f" stroke-width="0.25"/>
<path d="M 211.29 440.43 C 212.16 441.55 213.07 442.64 213.97 443.75 C 213.81 445.27 214.43 446.04 215.80 446.09 C 218.39 448.43 221.98 447.97 225.18 447.92 C 220.46 451.85 210.35 447.08 211.29 440.43 Z" fill="#a6abaa" opacity="1.00" stroke="#a6abaa" stroke-width="0.25"/>
<path d="M 305.28 441.96 C 306.50 442.20 307.73 442.45 308.97 442.70 C 309.11 444.39 309.20 446.10 309.30 447.80 C 311.91 447.68 314.52 447.58 317.13 447.74 L 318.11 447.83 C 318.24 445.81 318.36 443.80 318.49 441.79 C 319.31 443.25 320.13 444.71 320.99 446.16 C 320.98 445.60 320.96 444.48 320.95 443.92 C 321.56 445.08 322.22 446.25 322.52 447.55 C 322.24 449.29 321.92 451.05 321.60 452.80 C 316.40 451.93 311.11 452.00 305.92 452.83 C 305.12 449.26 305.06 445.59 305.28 441.96 Z" fill="#dd2a28" opacity="1.00" stroke="#dd2a28" stroke-width="0.25"/>
<path d="M 213.97 443.75 C 215.34 444.02 215.95 444.80 215.80 446.09 C 214.43 446.04 213.81 445.27 213.97 443.75 Z" fill="#ffffff" opacity="1.00" stroke="#ffffff" stroke-width="0.25"/>
<path d="M 271.10 445.78 C 276.81 443.81 282.95 444.25 288.83 443.09 C 288.68 444.08 288.38 446.04 288.24 447.03 C 282.30 450.63 275.13 447.57 268.94 450.06 C 261.62 452.66 253.27 454.36 245.83 451.27 C 245.92 449.65 246.02 448.03 246.11 446.42 L 246.66 446.61 C 254.50 450.06 263.21 447.88 271.10 445.78 Z" fill="#383c60" opacity="1.00" stroke="#383c60" stroke-width="0.25"/>
<path d="M 303.46 451.83 C 304.57 452.64 305.68 453.46 306.80 454.27 C 312.62 452.51 318.75 455.50 324.38 453.09 C 324.28 453.86 324.08 455.41 323.99 456.18 C 322.61 456.75 321.41 457.63 320.17 458.43 C 315.48 459.03 310.52 459.23 305.97 457.76 C 311.20 457.80 317.42 459.98 321.76 456.02 C 315.89 454.05 309.46 454.03 303.50 455.65 C 303.51 454.37 303.49 453.10 303.46 451.83 Z" fill="#352226" opacity="1.00" stroke="#352226" stroke-width="0.25"/>
<path d="M 303.50 455.65 C 309.46 454.03 315.89 454.05 321.76 456.02 C 317.42 459.98 311.20 457.80 305.97 457.76 C 304.84 457.48 304.01 456.78 303.50 455.65 Z" fill="#2f4873" opacity="1.00" stroke="#2f4873" stroke-width="0.25"/>
<path d="M 320.17 458.43 C 321.41 457.63 322.61 456.75 323.99 456.18 C 325.16 458.25 321.57 460.07 320.17 458.43 Z" fill="#b7becf" opacity="1.00" stroke="#b7becf" stroke-width="0.25"/>
</svg>