<?xml version="1.0" encoding="utf-8"?>
<!-- Generator: Adobe Illustrator 26.0.0, SVG Export Plug-In . SVG Version: 6.00 Build 0)  -->
<svg version="1.1" id="Layer_1" xmlns="http://www.w3.org/2000/svg" xmlns:xlink="http://www.w3.org/1999/xlink" x="0px" y="0px"
	 viewBox="0 0 280 100" style="enable-background:new 0 0 280 100;" xml:space="preserve">
<style type="text/css">
	.st0{fill:#FFFFFF;}
	.st1{fill:#E4E517;}
</style>
<g>
	<g>
		<path class="st0" d="M45.3,65.4V36h7.3l7.8,13.2c1.3,2.3,2.5,4.6,3.6,6.9c-0.1-1.3-0.1-3.1-0.1-5.6V36h6.4v29.4h-7.2l-7.3-12.3
			c-1.6-2.7-3-5.3-4.2-7.9c0.1,1.8,0.1,4.2,0.1,7.1v13.1H45.3z"/>
		<path class="st0" d="M77,36h6.6v17.1c0,2.9,0.3,4.8,0.9,5.7c0.5,0.7,1.1,1.2,2.1,1.5c0.8,0.3,1.6,0.4,2.5,0.4
			c1.2,0,2.4-0.3,3.3-0.8c1.2-0.6,1.9-1.7,2.1-3.3c0.1-0.9,0.2-2.1,0.2-3.6V36h6.4v16.3c0,3.3-0.1,5.5-0.4,6.6c-1,4.7-4.9,7-11.7,7
			c-5.3,0-8.8-1.4-10.6-4.2c-0.8-1.3-1.3-3.1-1.4-5.4c-0.1-1-0.1-2.4-0.1-4V36z"/>
		<path class="st0" d="M129.1,65.4V36h10.6c2.1,0,3.8,0.2,5.1,0.5c1.6,0.4,2.9,1.4,3.9,2.8c0.8,1.3,1.3,2.8,1.3,4.5
			c0,2.4-0.8,4.3-2.3,5.7c-0.9,0.8-1.9,1.3-3.2,1.7c0.9,0.3,1.6,1,2.2,1.9c0.2,0.3,0.9,1.6,2,3.9l3.7,8.3h-7.1l-2.4-5.6
			c-1-2.5-1.9-4.1-2.5-4.9c-0.8-0.9-1.8-1.4-3.1-1.4h-1.5v11.9H129.1z M135.6,48.6h2.3c1.7,0,2.9-0.2,3.8-0.7
			c1.2-0.6,1.8-1.7,1.8-3.2c0-1.3-0.4-2.3-1.3-2.9c-0.8-0.6-2.2-0.8-4.3-0.8h-2.3V48.6z"/>
		<path class="st0" d="M162.7,65.4V53.4L151.5,36h7.7l4.8,7.8c0.7,1.2,1.4,2.4,2.2,3.8c0.8-1.5,1.5-2.8,2.2-3.9l4.8-7.7h7.2
			l-11.1,17.3v12.1H162.7z"/>
		<path class="st0" d="M197.4,58.4h-11.1l-2.5,7h-6.6L188.4,36h6.9L207,65.4h-7L197.4,58.4z M195.7,53.4l-2.3-6.3
			c-0.5-1.3-1-2.8-1.5-4.6c-0.4,1.3-0.9,2.8-1.5,4.6l-2.3,6.4H195.7z"/>
		<path class="st0" d="M210.7,65.4V36h6.6v11.8h10.8V36h6.6v29.4h-6.6V53h-10.8v12.4H210.7z"/>
	</g>
	<g>
		<path class="st0" d="M102.2,72.3c0.6-0.1,1.4-0.2,2.2-0.2c1.5,0,2.6,0.3,3.3,1c0.7,0.7,1.1,1.6,1.1,2.9c0,1.3-0.4,2.4-1.2,3.1
			c-0.8,0.8-2,1.2-3.6,1.2c-0.7,0-1.4,0-1.9-0.1V72.3z M103.3,79.4c0.3,0,0.6,0.1,1.1,0.1c2.2,0,3.4-1.2,3.4-3.4
			c0-1.9-1.1-3.1-3.3-3.1c-0.5,0-0.9,0-1.2,0.1V79.4z"/>
		<path class="st0" d="M112,72.8c0,0.4-0.3,0.6-0.7,0.6c-0.4,0-0.6-0.3-0.6-0.6c0-0.4,0.3-0.7,0.7-0.7C111.7,72.2,112,72.5,112,72.8
			z M110.8,80.3v-5.8h1.1v5.8H110.8z"/>
		<path class="st0" d="M119.3,74.5c0,0.4,0,0.9,0,1.6v3.4c0,1.3-0.3,2.1-0.8,2.7c-0.6,0.5-1.4,0.7-2.1,0.7c-0.7,0-1.5-0.2-1.9-0.5
			l0.3-0.8c0.4,0.2,1,0.5,1.7,0.5c1.1,0,1.9-0.6,1.9-2v-0.6h0c-0.3,0.5-0.9,1-1.8,1c-1.4,0-2.5-1.2-2.5-2.8c0-2,1.3-3.1,2.6-3.1
			c1,0,1.6,0.5,1.8,1h0l0-0.9H119.3z M118.2,76.8c0-0.2,0-0.3-0.1-0.5c-0.2-0.6-0.7-1.1-1.5-1.1c-1,0-1.7,0.9-1.7,2.2
			c0,1.1,0.6,2.1,1.7,2.1c0.6,0,1.2-0.4,1.5-1.1c0.1-0.2,0.1-0.4,0.1-0.6V76.8z"/>
		<path class="st0" d="M122.7,72.8c0,0.4-0.3,0.6-0.7,0.6c-0.4,0-0.6-0.3-0.6-0.6c0-0.4,0.3-0.7,0.7-0.7
			C122.5,72.2,122.7,72.5,122.7,72.8z M121.5,80.3v-5.8h1.1v5.8H121.5z"/>
		<path class="st0" d="M126.3,72.8v1.7h1.5v0.8h-1.5v3.1c0,0.7,0.2,1.1,0.8,1.1c0.3,0,0.5,0,0.6-0.1l0,0.8c-0.2,0.1-0.5,0.1-0.9,0.1
			c-0.5,0-0.9-0.2-1.1-0.4c-0.3-0.3-0.4-0.8-0.4-1.5v-3.2h-0.9v-0.8h0.9v-1.4L126.3,72.8z"/>
		<path class="st0" d="M132.8,80.3l-0.1-0.7h0c-0.3,0.5-0.9,0.9-1.8,0.9c-1.2,0-1.8-0.8-1.8-1.7c0-1.4,1.2-2.2,3.5-2.2v-0.1
			c0-0.5-0.1-1.3-1.3-1.3c-0.5,0-1.1,0.2-1.5,0.4l-0.2-0.7c0.5-0.3,1.2-0.5,1.9-0.5c1.8,0,2.2,1.2,2.2,2.4v2.2c0,0.5,0,1,0.1,1.4
			H132.8z M132.6,77.3c-1.2,0-2.5,0.2-2.5,1.3c0,0.7,0.5,1,1,1c0.8,0,1.2-0.5,1.4-1c0-0.1,0.1-0.2,0.1-0.3V77.3z"/>
		<path class="st0" d="M136,71.8h1.1v8.5H136V71.8z"/>
		<path class="st0" d="M143.7,72.2v3.4h3.9v-3.4h1.1v8.1h-1.1v-3.8h-3.9v3.8h-1v-8.1H143.7z"/>
		<path class="st0" d="M151.7,77.6c0,1.4,0.9,2,2,2c0.8,0,1.2-0.1,1.6-0.3l0.2,0.8c-0.4,0.2-1,0.4-1.9,0.4c-1.8,0-2.9-1.2-2.9-2.9
			s1-3.1,2.7-3.1c1.9,0,2.4,1.7,2.4,2.7c0,0.2,0,0.4,0,0.5H151.7z M154.8,76.8c0-0.7-0.3-1.7-1.5-1.7c-1.1,0-1.5,1-1.6,1.7H154.8z"
			/>
		<path class="st0" d="M161,80.3l-0.1-0.7h0c-0.3,0.5-0.9,0.9-1.8,0.9c-1.2,0-1.8-0.8-1.8-1.7c0-1.4,1.2-2.2,3.5-2.2v-0.1
			c0-0.5-0.1-1.3-1.3-1.3c-0.5,0-1.1,0.2-1.5,0.4l-0.2-0.7c0.5-0.3,1.2-0.5,1.9-0.5c1.8,0,2.2,1.2,2.2,2.4v2.2c0,0.5,0,1,0.1,1.4
			H161z M160.8,77.3c-1.2,0-2.5,0.2-2.5,1.3c0,0.7,0.5,1,1,1c0.8,0,1.2-0.5,1.4-1c0-0.1,0.1-0.2,0.1-0.3V77.3z"/>
		<path class="st0" d="M164.2,71.8h1.1v8.5h-1.1V71.8z"/>
		<path class="st0" d="M168.9,72.8v1.7h1.5v0.8h-1.5v3.1c0,0.7,0.2,1.1,0.8,1.1c0.3,0,0.5,0,0.6-0.1l0,0.8c-0.2,0.1-0.5,0.1-0.9,0.1
			c-0.5,0-0.9-0.2-1.1-0.4c-0.3-0.3-0.4-0.8-0.4-1.5v-3.2H167v-0.8h0.9v-1.4L168.9,72.8z"/>
		<path class="st0" d="M172.3,71.8h1.1v3.6h0c0.2-0.3,0.4-0.6,0.8-0.7c0.3-0.2,0.7-0.3,1.1-0.3c0.8,0,2,0.5,2,2.5v3.5h-1.1v-3.3
			c0-0.9-0.3-1.7-1.3-1.7c-0.7,0-1.2,0.5-1.4,1.1c-0.1,0.1-0.1,0.3-0.1,0.5v3.5h-1.1V71.8z"/>
	</g>
	<path class="st1" d="M184.6,24.3h-60.6v-6.6c0-0.6-0.5-1-1-1h-14.1c-0.6,0-1,0.5-1,1v6.6H85.6c-1.5,0-2.7,1.2-2.7,2.6v1.9
		c0,1.5,1.2,2.6,2.7,2.6h22.3v33.8c0,0.6,0.5,1,1,1H123c0.6,0,1-0.5,1-1V31.4h60.6c1.5,0,2.7-1.2,2.7-2.6V27
		C187.3,25.5,186.1,24.3,184.6,24.3z"/>
</g>
</svg>
