<?xml version="1.0" encoding="utf-8"?>
<!-- Generator: Adobe Illustrator 26.0.0, SVG Export Plug-In . SVG Version: 6.00 Build 0)  -->
<svg version="1.1" id="Layer_1" xmlns="http://www.w3.org/2000/svg" xmlns:xlink="http://www.w3.org/1999/xlink" x="0px" y="0px"
	 viewBox="0 0 280 100" style="enable-background:new 0 0 280 100;" xml:space="preserve">
<style type="text/css">
	.st0{fill:#FFFFFF;}
	.st1{fill:#E4E517;}
</style>
<g>
	<g>
		<path class="st0" d="M90.2,71.6c0.6-0.1,1.4-0.2,2.2-0.2c1.5,0,2.6,0.3,3.3,1c0.7,0.7,1.1,1.6,1.1,2.9c0,1.3-0.4,2.4-1.2,3.1
			c-0.8,0.8-2,1.2-3.6,1.2c-0.7,0-1.4,0-1.9-0.1V71.6z M91.2,78.7c0.3,0,0.6,0.1,1.1,0.1c2.2,0,3.4-1.2,3.4-3.4
			c0-1.9-1.1-3.1-3.3-3.1c-0.5,0-0.9,0-1.2,0.1V78.7z"/>
		<path class="st0" d="M99.9,72.1c0,0.4-0.3,0.6-0.7,0.6c-0.4,0-0.6-0.3-0.6-0.6c0-0.4,0.3-0.7,0.7-0.7
			C99.7,71.4,99.9,71.7,99.9,72.1z M98.7,79.5v-5.8h1.1v5.8H98.7z"/>
		<path class="st0" d="M107.2,73.7c0,0.4,0,0.9,0,1.6v3.4c0,1.3-0.3,2.1-0.8,2.7c-0.6,0.5-1.4,0.7-2.1,0.7c-0.7,0-1.5-0.2-1.9-0.5
			l0.3-0.8c0.4,0.2,1,0.5,1.7,0.5c1.1,0,1.9-0.6,1.9-2v-0.6h0c-0.3,0.5-0.9,1-1.8,1c-1.4,0-2.5-1.2-2.5-2.8c0-2,1.3-3.1,2.6-3.1
			c1,0,1.6,0.5,1.8,1h0l0-0.9H107.2z M106.1,76c0-0.2,0-0.3-0.1-0.5c-0.2-0.6-0.7-1.1-1.5-1.1c-1,0-1.7,0.9-1.7,2.2
			c0,1.1,0.6,2.1,1.7,2.1c0.6,0,1.2-0.4,1.5-1.1c0.1-0.2,0.1-0.4,0.1-0.6V76z"/>
		<path class="st0" d="M110.6,72.1c0,0.4-0.3,0.6-0.7,0.6c-0.4,0-0.6-0.3-0.6-0.6c0-0.4,0.3-0.7,0.7-0.7
			C110.4,71.4,110.6,71.7,110.6,72.1z M109.5,79.5v-5.8h1.1v5.8H109.5z"/>
		<path class="st0" d="M114.2,72.1v1.7h1.5v0.8h-1.5v3.1c0,0.7,0.2,1.1,0.8,1.1c0.3,0,0.5,0,0.6-0.1l0,0.8c-0.2,0.1-0.5,0.1-0.9,0.1
			c-0.5,0-0.9-0.2-1.1-0.4c-0.3-0.3-0.4-0.8-0.4-1.5v-3.2h-0.9v-0.8h0.9v-1.4L114.2,72.1z"/>
		<path class="st0" d="M120.7,79.5l-0.1-0.7h0c-0.3,0.5-0.9,0.9-1.8,0.9c-1.2,0-1.8-0.8-1.8-1.7c0-1.4,1.2-2.2,3.5-2.2v-0.1
			c0-0.5-0.1-1.3-1.3-1.3c-0.5,0-1.1,0.2-1.5,0.4l-0.2-0.7c0.5-0.3,1.2-0.5,1.9-0.5c1.8,0,2.2,1.2,2.2,2.4v2.2c0,0.5,0,1,0.1,1.4
			H120.7z M120.6,76.6c-1.2,0-2.5,0.2-2.5,1.3c0,0.7,0.5,1,1,1c0.8,0,1.2-0.5,1.4-1c0-0.1,0.1-0.2,0.1-0.3V76.6z"/>
		<path class="st0" d="M123.9,71h1.1v8.5h-1.1V71z"/>
		<path class="st0" d="M131.7,71.5v3.4h3.9v-3.4h1.1v8.1h-1.1v-3.8h-3.9v3.8h-1v-8.1H131.7z"/>
		<path class="st0" d="M139.6,76.8c0,1.4,0.9,2,2,2c0.8,0,1.2-0.1,1.6-0.3l0.2,0.8c-0.4,0.2-1,0.4-1.9,0.4c-1.8,0-2.9-1.2-2.9-2.9
			s1-3.1,2.7-3.1c1.9,0,2.4,1.7,2.4,2.7c0,0.2,0,0.4,0,0.5H139.6z M142.7,76.1c0-0.7-0.3-1.7-1.5-1.7c-1.1,0-1.5,1-1.6,1.7H142.7z"
			/>
		<path class="st0" d="M148.9,79.5l-0.1-0.7h0c-0.3,0.5-0.9,0.9-1.8,0.9c-1.2,0-1.8-0.8-1.8-1.7c0-1.4,1.2-2.2,3.5-2.2v-0.1
			c0-0.5-0.1-1.3-1.3-1.3c-0.5,0-1.1,0.2-1.5,0.4l-0.2-0.7c0.5-0.3,1.2-0.5,1.9-0.5c1.8,0,2.2,1.2,2.2,2.4v2.2c0,0.5,0,1,0.1,1.4
			H148.9z M148.7,76.6c-1.2,0-2.5,0.2-2.5,1.3c0,0.7,0.5,1,1,1c0.8,0,1.2-0.5,1.4-1c0-0.1,0.1-0.2,0.1-0.3V76.6z"/>
		<path class="st0" d="M152.1,71h1.1v8.5h-1.1V71z"/>
		<path class="st0" d="M156.8,72.1v1.7h1.5v0.8h-1.5v3.1c0,0.7,0.2,1.1,0.8,1.1c0.3,0,0.5,0,0.6-0.1l0,0.8c-0.2,0.1-0.5,0.1-0.9,0.1
			c-0.5,0-0.9-0.2-1.1-0.4c-0.3-0.3-0.4-0.8-0.4-1.5v-3.2h-0.9v-0.8h0.9v-1.4L156.8,72.1z"/>
		<path class="st0" d="M160.2,71h1.1v3.6h0c0.2-0.3,0.4-0.6,0.8-0.7c0.3-0.2,0.7-0.3,1.1-0.3c0.8,0,2,0.5,2,2.5v3.5h-1.1v-3.3
			c0-0.9-0.3-1.7-1.3-1.7c-0.7,0-1.2,0.5-1.4,1.1c-0.1,0.1-0.1,0.3-0.1,0.5v3.5h-1.1V71z"/>
	</g>
	<g>
		<g>
			<path class="st0" d="M30.8,64.7V35.3h7.3l7.8,13.2c1.3,2.3,2.5,4.6,3.6,6.9c-0.1-1.3-0.1-3.1-0.1-5.6V35.3h6.4v29.4h-7.2
				l-7.3-12.3c-1.6-2.7-3-5.3-4.2-7.9c0.1,1.8,0.1,4.2,0.1,7.1v13.1H30.8z"/>
			<path class="st0" d="M62.5,35.3h6.6v17.1c0,2.9,0.3,4.8,0.9,5.7c0.5,0.7,1.1,1.2,2.1,1.5c0.8,0.3,1.6,0.4,2.5,0.4
				c1.2,0,2.4-0.3,3.3-0.8c1.2-0.6,1.9-1.7,2.1-3.3c0.1-0.9,0.2-2.1,0.2-3.6V35.3h6.4v16.3c0,3.3-0.1,5.5-0.4,6.6
				c-1,4.7-4.9,7.1-11.7,7.1c-5.3,0-8.8-1.4-10.6-4.2c-0.8-1.3-1.3-3.1-1.4-5.4c-0.1-1-0.1-2.4-0.1-4V35.3z"/>
			<path class="st0" d="M114.6,64.7V35.3h10.6c2.1,0,3.8,0.2,5.1,0.5c1.6,0.4,2.9,1.4,3.9,2.8c0.8,1.3,1.3,2.8,1.3,4.5
				c0,2.4-0.8,4.3-2.3,5.7c-0.9,0.8-1.9,1.3-3.2,1.7c0.9,0.3,1.6,1,2.2,1.9c0.2,0.3,0.9,1.6,2,3.9l3.7,8.3h-7.1l-2.4-5.6
				c-1.1-2.5-1.9-4.1-2.6-4.9c-0.8-0.9-1.8-1.4-3.1-1.4h-1.5v11.9H114.6z M121,47.9h2.3c1.7,0,2.9-0.2,3.8-0.7
				c1.2-0.6,1.8-1.7,1.8-3.2c0-1.3-0.4-2.3-1.3-2.9c-0.8-0.6-2.2-0.8-4.3-0.8H121V47.9z"/>
			<path class="st0" d="M148.2,64.7V52.6L137,35.3h7.7l4.8,7.8c0.7,1.2,1.4,2.4,2.2,3.8c0.8-1.5,1.5-2.8,2.2-3.9l4.8-7.7h7.2
				l-11.1,17.3v12.1H148.2z"/>
			<path class="st0" d="M182.9,57.7h-11.1l-2.5,7h-6.6l11.2-29.4h6.9l11.6,29.4h-7L182.9,57.7z M181.2,52.7l-2.3-6.3
				c-0.5-1.3-1-2.8-1.5-4.6c-0.4,1.3-0.9,2.8-1.5,4.6l-2.3,6.4H181.2z"/>
			<path class="st0" d="M196.2,64.7V35.3h6.6v11.8h10.8V35.3h6.6v29.4h-6.6V52.3h-10.8v12.4H196.2z"/>
		</g>
		<path class="st1" d="M175,23.6h-60.6V17c0-0.6-0.5-1-1-1H99.3c-0.6,0-1,0.5-1,1v6.6H76c-1.5,0-2.7,1.2-2.7,2.6v1.9
			c0,1.5,1.2,2.6,2.7,2.6h22.3v33.8c0,0.6,0.5,1,1,1h14.1c0.6,0,1-0.5,1-1V30.7H175c1.5,0,2.7-1.2,2.7-2.6v-1.9
			C177.7,24.8,176.5,23.6,175,23.6z"/>
	</g>
</g>
</svg>
