<svg id="Layer_1" data-name="Layer 1" xmlns="http://www.w3.org/2000/svg" viewBox="0 0 280 100"><defs><style>.cls-1{fill:#004789;}.cls-2{font-size:42.47px;font-family:SiemensSansSC-Black, Siemens Sans SC Black;font-weight:800;}.cls-2,.cls-5{fill:#fff;}.cls-3{letter-spacing:-0.02em;}.cls-4{letter-spacing:-0.07em;}.cls-5{font-size:12px;font-family:MyriadPro-Regular, Myriad Pro;letter-spacing:0.05em;}.cls-6{letter-spacing:0.05em;}.cls-7{letter-spacing:0.05em;}.cls-8{fill:#e4e517;}</style></defs><rect class="cls-1" width="280" height="101"/><text class="cls-2" transform="translate(41.84 63.2)"><tspan xml:space="preserve">NU  </tspan><tspan class="cls-3" x="83.79" y="0">R</tspan><tspan class="cls-4" x="110.09" y="0">Y</tspan><tspan x="135.14" y="0">AH</tspan></text><text class="cls-5" transform="translate(101.32 78.05)">Di<tspan class="cls-6" x="12.07" y="0">g</tspan><tspan class="cls-7" x="19.34" y="0">ital Health</tspan></text><path class="cls-8" d="M184.64,22.1H124.05V15.52a1,1,0,0,0-1-1h-14.1a1,1,0,0,0-1,1V22.1H85.61a2.66,2.66,0,0,0-2.69,2.64v1.85a2.66,2.66,0,0,0,2.69,2.63h22.25V63a1,1,0,0,0,1,1H123a1,1,0,0,0,1-1V29.22h60.59a2.67,2.67,0,0,0,2.69-2.63V24.74A2.67,2.67,0,0,0,184.64,22.1Z"/></svg>